<svg version="1.1" id="Ebene_1" xmlns="http://www.w3.org/2000/svg" x="0" y="0" viewBox="0 0 663.1 343.1" style="enable-background:new 0 0 663.1 343.1" xml:space="preserve"><g class="st1"><defs><path id="SVGID_1_" class="st1" d="M4726.5 590.5c-18.4 0-36.5-1.5-54.2-4.4s-34.8-7.1-51.4-12.7c-16.6-5.5-32.6-12.3-47.9-20.3-15.3-7.9-29.9-17-43.8-27.2s-26.8-21.3-38.9-33.4-23.3-25.1-33.4-38.9c-10.1-13.8-19.2-28.4-27.2-43.8-7.9-15.3-14.7-31.3-20.3-47.9-5.5-16.6-9.8-33.8-12.7-51.4s-4.4-35.7-4.4-54.2c0-18.4 1.5-36.5 4.4-54.2s7.1-34.8 12.7-51.4c5.5-16.6 12.3-32.6 20.3-47.9 7.9-15.3 17-29.9 27.2-43.8 10.1-13.8 21.3-26.8 33.4-38.9s25.1-23.3 38.9-33.4 28.4-19.2 43.8-27.2 31.3-14.7 47.9-20.3 33.8-9.8 51.4-12.7c17.6-2.9 35.7-4.4 54.2-4.4 184.4 0 333.9 149.5 333.9 334s-149.5 334.4-333.9 334.4z"/></defs><clipPath id="SVGID_2_"/><path class="st2" d="M4763.3-3.4c2.3 20.9-20.7 22.2-30.9 12.9-5-4.6-5.4-8.8-5.9-12.9v-46.7c1-9.3 7.3-10 9.4-10.2 6.1.6 10.6 3.9 13.9 10.2 4.9 12.1 9.4 27.9 13.5 46.7M4719.3-32.4c-1.1 4-4.9 10.8-17 11.9h-49.6c-13.2-1.5-5.5-13.6 2.5-19.9 8.5-6.7 14.8-7.3 16.9-7.5h36.6c12.1 1.2 11.4 12.5 10.6 15.5M4675.5 67.8c-6.1 26.7-33.7 28.4-42.7 16.7-4.5-5.9-3.7-11.4-3-16.7 6-24.8 13.1-47.1 21.1-66.5 5.4-10.5 13.1-16.1 23.5-17.2 6 .6 13.9 3.1 12.2 17.2-4.2 19.3-7.9 41.7-11.1 66.5M4802.1 47.2c.2 6-1.9 16.2-18.4 17.9h-77.1c-26.6-2.6-25-26.7-13-37.1 5.8-5 10.8-5.5 15.6-5.9h67.1c24 2.4 25.8 24.9 25.8 25.1M4783.7 182.1c-2 32.9-34.5 33.8-48.4 20.2-7.3-7.1-8-13.8-8.6-20.2V96.7c1.6-14.8 9.7-22.6 24.7-24.1 15.2 1.5 23.7 9.1 26.7 24.1 2.5 26.5 4.4 55.2 5.6 85.4M4713.1 132.2c-1.6 7.1-7.5 19.4-27.8 21.4h-84.5c-27.1-3.1-22.6-32.8-9-44.9 6.9-6.2 12.4-6.8 17.7-7.4h78.6c25.7 2.5 26.7 23.7 25 30.9M4664.9 284.4c-2.7 33.4-33.2 34.4-46.5 20.7-6.9-7.2-7.8-14-8.6-20.7-.3-9.2-.4-18.5-.4-27.9 0-22.9.8-45.3 2.4-66.9 2.9-17.4 12-26.3 28.5-28 16.3 1.7 24.7 10.9 25.7 28-.8 21.6-1.2 44-1.2 66.9-.1 9.4 0 18.7.1 27.9M4823.6 257.1c-1.8 9.8-8 21.8-27.4 23.9H4702.3c-36.5-3.7-34.5-42.3-16.3-54.7 5.8-4 11.7-4.6 16.4-5h93.6c32.6 3.5 27.6 35.5 27.6 35.8M4779 406.3c-5.6 28.9-36.1 30.6-47.9 13.9-3.5-5-4-9.7-4.4-13.9v-86.8c1.8-17.7 11.5-27.2 29.5-29 17.7 1.8 26.8 11.3 28 29-1.1 30.7-2.9 59.8-5.2 86.8M4712.8 358.3c-1.4 7.2-6.8 19.5-26.5 21.5h-82.6c-29-3.2-35.3-37.5-20.1-50.1 4.6-3.8 9.6-4.4 13.6-4.8h86.9c28.3 2.8 30.2 25.6 28.7 33.4M4681.6 485.9c1.6 21.2-17.2 23.6-29.9 14-6.3-4.8-8.3-9.5-10.3-14-7.2-21.8-13.4-46.3-18.4-73-1.3-15.6 5.4-23.9 20.7-25.5 15.8 1.6 25.1 10 28.1 25.5 2.7 26.7 6 51.2 9.8 73M4801.9 466.7c-2 4.6-8.3 15.3-24.2 16.9h-69.1c-26.7-2.5-30.6-30-15.9-40.1 4.6-3.1 9.5-3.6 13.4-4h78.8c26.8 2.7 17.1 26.9 17 27.2M4751.6 558.4c-6.4 13.4-20.1 14.2-24.1 4.6-.5-1.3-.8-3.2-.9-4.6v-49.2c1.3-11.7 8.2-17.9 21.2-19.2 12.6 1.2 18.2 7.5 17.1 19.2-4 19.7-8.5 36.3-13.3 49.2M4718.4 532.9c-.5 3.2-2.8 10.9-13.8 12h-44.8c-19.3-2-33.9-24.6-23.8-30.9 1.5-.9 4-1.2 5.7-1.4h57c18.4 1.8 20.5 15.3 19.7 20.3M4717.6 587.1c2.2 1.7 2.5 2 3.9 2.8 0 0-3.8.2-11.8-2.8-10.9-4.5-21.3-13.2-31-25.6-3.5-5.2-5.5-11.6 4.3-12.6 8.4.8 14.4 5 18.3 12.6 5.1 12.5 10.6 21.2 16.3 25.6"/><path class="st2" d="M4748 582.3c-.2.2-5.7 3.9-10.8 4.3H4722.8c-6.5-.6-13.1-8.3-8.8-12.2 1.3-1.2 2.6-1.3 4.7-1.5H4748.9c7.5.8 3.2 6.1.8 8-.5.5-1.2 1-1.7 1.4M4885.8-3.4c15.5 18.1 3.4 18.5 2.8 18.5-2 0-12.5-.7-27.7-18.5-14.9-18.8-31.5-34.6-49.4-46.7-8.5-5.9-10.5-7.7-11.5-9.5 0-.2.1-.4.1-.5.3-.1.6-.1.9-.2 2.2.2 10.4 1.7 26.2 10.2 21.2 12.1 40.9 27.9 58.6 46.7"/><path class="st2" d="M4828.6-32.4c2.8 3.2 8.3 10.7-.9 11.9h-45.6c-19-1.9-24.8-20.1-19.9-25.4 1.5-1.6 3.5-1.8 5.2-2h33.6c10.9 1.1 23.4 10.6 27.6 15.5M4863.4 67.8c6.1 24.8-14.9 27.7-27.7 19.7-9.9-6.2-13-15.6-14.3-19.7-5.8-24.8-12.8-47.1-20.7-66.5-4.5-14.1 2.1-16.5 7.5-17.2 9.9 1 18.2 6.6 25.4 17.2 11.3 19.3 21.3 41.7 29.8 66.5M4942.3 47.2c3.3 5.9 7.3 16.2-2.2 17.9h-52.9c-25.4-3-35.9-34.8-26.5-41.4 1.4-1 3.8-1.3 5.5-1.6h46c14.7 2.2 27.5 20.4 30.1 25.1M4973.8 182.1c3 29.6-15.7 33.1-26.6 23.7-8.6-7.4-11-18.8-12.1-23.7-4.4-30.2-11.4-58.9-20.7-85.4-4.2-15-1.7-22.6 7.9-24.1 10.9 1.5 19.7 9.3 26.9 24.1 11.1 26.5 19.4 55.2 24.6 85.4M4915.4 132.2c.6 7.1-.8 19.4-16.5 21.4h-77.7c-30.7-3.2-36-35.7-19.6-48 4.5-3.4 9.2-3.9 13-4.3h72.3c25.1 3 28.5 30.6 28.5 30.9M4891.8 284.4c-4.3 33.3-32.5 34.3-44 20.7-6.1-7.2-6.5-14-6.9-20.7.3-9.2.4-18.5.4-27.9 0-22.9-.8-45.3-2.3-66.9.3-17.1 7.7-26.3 22.6-28 15.2 1.7 24.1 10.9 27.4 28 2.2 21.6 3.3 44 3.3 66.9.1 9.4-.1 18.7-.5 27.9M5003.4 257.1c-.9 8-4.2 21.7-16.9 23.9h-64.4c-28.1-3.7-26.9-42.3-13.1-54.7 4.5-4 7.1-4.3 12.5-5h64.2c17.3 2.9 18.6 27.5 17.7 35.8M4953.3 406.3c-11.9 26.2-31.5 30.1-36.1 17.5-2.2-6-.7-12.1.7-17.5 8.7-27 15.1-56.1 18.9-86.8 3.4-17.7 11-27.2 23.2-29 11.9 1.8 17 11.3 15.7 29-4.5 30.7-12.1 59.8-22.4 86.8M4920.4 358.3c-2 5.8-8.6 19.4-25.4 21.5h-75.9c-29.8-3.2-29-37.5-10.4-50.1 5.6-3.8 11-4.4 15.3-4.8h80c22 2.7 19.1 25.6 16.4 33.4M4847.1 485.9c-12.9 22.9-34.2 24.2-37.7 11.1-1.1-3.9-.1-7.9.6-11.1 7.1-21.8 13.2-46.3 18-73 4.3-15.6 13.5-23.9 28.2-25.5 14 1.6 19.5 10 16.9 25.5-7 26.7-15.8 51.2-26 73M4941.7 466.7c-2.8 3.5-12.7 15.2-24 16.9h-47.4c-18.3-2.4-8.2-27.1 4.1-37.3 7-5.7 11.6-6.3 16.1-6.8h54c13.3 2.3 2.2 20.9-2.8 27.2M4835.1 558.4c-15.2 8.9-24.8 11.4-27.5 10.9l-.3-.6c.8-1.9 2.6-4 10.9-10.3 17.5-13 33.8-29.6 48.3-49.2 9.6-11.9 18.4-17.9 27.8-19.2 7.9 1.3 7.2 7.7-1.9 19.2-17.3 19.7-36.5 36.3-57.3 49.2M4840.8 532.9c-2.6 2.5-12.1 10.8-22.8 12h-41.2c-14.6-1.6-11-18.9-.4-27.1 5.6-4.4 10.1-4.8 14-5.2h52.4c12.8 1.7 4.2 14.4-2 20.3M4750.2 587.1c-6.3 1.7-11.6 2.6-16 2.9 2.9-1.1 5.8-1.8 8.7-2.9 10.7-4.5 20.9-13.2 30.4-25.6 4.2-4.9 10.9-11.6 21.3-12.6 4.9.6 8.8 3.3-.5 12.6-13.7 12.5-28.5 21.2-43.9 25.6"/><path class="st2" d="M4787.8 582.3c-7.4 2-17.2 3.9-21.4 4.3h-9.9c-.1 0-.3-.1-.4-.1.1-.1 23.9-12.6 33.3-13.6h20.7c.2.1.5.1.7.2-.9 2-11 6-23 9.2M4944 3.1c9.1 7.8 11.3 10.7 12.1 11.6-1.4 0-2.3-.7-23.5-18.1-22.9-18.8-48.4-34.6-75.7-46.7-8.2-3.6-16.9-5.9-24.8-10.2 1.6.4 8.2 2.5 17.6 6.2 34.6 13.9 66.5 33.3 94.3 57.2"/><path class="st2" d="M4889.7-32.4c4.9 3 13.2 8.5 14.8 11.6-.2.1-.4.2-.5.3h-22c-12.4-1.8-42-23.3-41.8-27.2.3-.1.6-.2.9-.2h16.2c4.9.9 19.9 7.8 32.4 15.5M4983.6 67.8c12.8 21.6 6.6 25 1.6 23.3-2.8-1-10.6-5.2-22-23.3-14.6-24.8-32-47.1-51.7-66.5-10.9-11.1-12.8-14.8-12.3-16.8.3-.1.7-.2 1.1-.3 4.2.8 12.3 4.3 27.2 17.2 21.3 19.2 40.2 41.6 56.1 66.4M5000.2 65.1h-9c-9.3-2.8-35.2-35.6-35.3-42.6.2-.1.5-.3.7-.4h7.8c13.1 13.3 25 27.7 35.8 43M5054.3 192.4c3 16.3 1.8 17.9 1.4 18.4-2.2-1.8-5.1-10.9-9.3-28.7-6.8-30.2-17.5-58.9-31.7-85.4-10.3-19.5-11.2-23.1-10.8-24.1 1.9 1.2 5.5 6.3 10.8 15.2 18.7 31.9 32.3 67.2 39.6 104.6"/><path class="st2" d="M5028.4 132.2c2.4 7.1 5.7 19.4.4 21.4h-37.4c-12.7-2.2-19.6-17-21.4-21.4-8.2-20.3-3.3-28.8.4-30.4.7-.3 1.8-.4 2.6-.5h34.8c9.2 2.6 18.6 25.1 20.6 30.9M5037 284.4c-3.5 29.2-14.4 31.9-19.2 26.9-6.1-6.4-5.6-21.3-5.5-26.9.7-9.2 1-18.5 1-27.9 0-22.9-2-45.3-5.8-66.9-2.3-17.4-.1-26.3 6.8-28 7.7 1.7 13.4 10.9 17.4 28 4.1 21.6 6.3 44 6.3 66.9.1 9.4-.3 18.7-1 27.9M5060.4 256.5c0 8.2-.3 16.4-.9 24.5h-11c-11.5-4.7-7.7-55.1-2.4-59.1.4-.3 1-.4 1.5-.6h10.9c1.3 11.6 1.9 23.3 1.9 35.2M5020.3 415.4c-5 9.1-8.5 14.3-10.3 15.5 0-2.2 0-4.2 9.9-24.6 13.3-27 23.2-56.1 28.9-86.8 3.5-18 6.2-27.2 8.3-29 .4.5 1.7 2.1-.8 18.6-6 38-18.4 73.8-36 106.3"/><path class="st2" d="M5036.3 358.3c-2.1 5.8-7.6 19.4-14.5 21.5h-36.6c-18.1-3.5-6.5-43.7 7.3-52.7 1.7-1.1 4.4-1.9 6.4-2.2h38.5c7.9 2.8 1.7 25.6-1.1 33.4M4953 485.9c-12.1 13-22.9 20.5-27.6 19.1-1.5-2.9 1.3-8.4 9.6-19.1 17.7-21.8 32.8-46.3 45-73 7.9-15.8 15.1-23.9 22.8-25.5 6.3 1.6 6 10-1 25.5-13.1 26.7-29.6 51.2-48.8 73"/><path class="st2" d="M4971.4 483.5h-8.1c-.2-.1-.5-.3-.7-.4-.3-7.1 24.6-40.8 34.1-43.7h9.2c-10.3 15.7-21.8 30.5-34.5 44.1M4860.1 562.7c-7.8 3.4-15.1 6.2-17.4 6.8 8-3.9 16.2-7.2 24.2-11.1 26.9-13 51.8-29.6 74-49.2 15.7-13.9 20.7-18.1 23-19.2-.8 1.4-1.8 3.3-11.6 12.4-27 25-58.1 45.4-92.2 60.3"/><path class="st2" d="M4909.1 532.9c-.6.4-15.7 10.6-22.3 12h-19.9l-1.2-.3c-2.4-5.3 25.9-29.9 39.4-32h25.3c.2.1.5.3.7.4-1 4.7-14.8 15.1-22 19.9M4771 587.1c-5.2.8-16.2 2.3-28.1 2.9 11.7-.9 17.1-1.7 24.5-2.9 26.7-4.5 52.2-13.2 76-25.6 15.9-8.2 23.3-11.8 28.2-12.6.2.1.5.2.7.3-1.1 3.5-14 9.9-18.8 12.3-25.8 12.5-53.5 21.2-82.5 25.6"/><path class="st2" d="M4777.5 586.6h-1.7c.1 0 .2-.1.3-.1 10.1-2.6 20.5-4.2 30.6-7 7.8-2.1 15.4-5.1 23.3-6.6h3.5c-17.9 6.2-36.7 10.8-56 13.7"/></g><circle class="st3" cx="3935.5" cy="-48.5" r="334"/><g class="st1"><path class="st3" d="M52.5 128.3c10.3 29.7.8 25.2.7 25.2-1.6-.8-7.5-5-16.1-25.2C26 100.2 18.6 70.2 15.3 38.9c-1.3-18.1.4-27.7 5.4-29.6 5.2 1.8 8.8 11.5 11.1 29.6 3.1 31.3 10.2 61.3 20.7 89.4"/><path class="st3" d="M127.4 103.9c.8 12.7-3.6 19.9-13.1 21.4H65.7C44.7 121 39.3 75.8 48.9 71c.7-.3 1.7-.4 2.5-.6h51.1c18.9 2.9 24.5 25.7 24.9 33.5M158 232.1c14.3 22.1 2 19.5.6 19.1-2.5-.6-11.7-3.9-24.9-19.1-17.3-21.7-32.2-46.2-44.1-72.8-6-15.5-4.6-23.8 4.3-25.4 9.9 1.6 18.2 9.9 25.2 25.4 10.5 26.5 23.6 51 38.9 72.8M100.8 192.5c5.3 10.7 5.9 16.8 1.6 17.9h-21c-6.5-2.8-29.9-36.3-31-46.1.1-.2.3-.4.5-.5h23.4c13.6 2.8 26.4 28.4 26.5 28.7M184.4 292.3c16.8 10.6 18 11.5 19.3 12.9-3.3 0-13.9-4.9-27.6-12.9-25.4-15.1-48.6-33.6-69-54.9-4.2-4.6-14-15.2-13.7-20.2.3-.1.6-.3.9-.4 4.9 1.3 12.2 7.5 24.6 20.7 19.4 21.1 41.4 39.6 65.5 54.8"/><path class="st3" d="M213.7 278.6c8.9 10.9 4.1 11.8 2.6 12.1h-26.7c-12.4-2-44.2-25.1-41.4-32.1.4-.1.9-.3 1.3-.4h33.8c15.3 1.9 29.8 19.6 30.4 20.4M303.1 333.8c5.9 1.1 11 2.1 20.5 3-10.7-.6-20.7-2.2-25.5-3-26.2-4.6-51.3-13.5-74.6-26-8.5-4.8-13.5-8.1-15.1-11.6.1-.2.2-.6.3-.8.4-.1.9-.2 1.2-.3 6.5.9 15.3 5.5 27.4 12.7 20.5 12.5 42.6 21.4 65.8 26"/><path class="st3" d="M252.5 322c5.4 2 11 3.6 16.2 6-3.1.1-5.2.1-6.4.1-11.2-2-41-11.4-53.1-17.9 1.8-.2 5.4-.2 10.5-.2 2 .3 2 .3 32.8 12M340.5 337.5c-14 0-27.8-.9-41.4-2.7-21.3-3-26.5-4.9-26.5-4.9 9.6 1.3 19 3.5 28.6 4.9 12.8 1.8 25.9 2.7 39.3 2.7"/><path class="st3" d="M340.5 337.5c-3.4 0-6.4-.1-8.8-.1h1.6c3.3.1 4.3.1 7.2.1M189.3 128.3c3.1 27.3-16.5 29.3-28.3 21.4-9.7-6.6-13.1-16.6-14.7-21.4-7.1-28.1-11.9-58.1-13.9-89.4.3-18.1 7.2-27.7 21.3-29.6 14.3 1.8 22.4 11.5 24.7 29.6 1.6 31.3 5.3 61.3 10.9 89.4M328.7 103.9c-1.4 7.2-6.8 19.5-26.7 21.4h-82.9c-29.1-3.1-35.2-37.4-20-50 4.6-3.8 9.6-4.4 13.7-4.8H300c28.3 2.8 30.2 25.6 28.7 33.4M302 232.1c1.1 22.7-21.4 24-34 11.1-3.9-3.9-5.4-7.7-6.8-11.1-6.6-21.7-12.3-46.2-16.9-72.8-1.1-15.5 5.9-23.8 21.4-25.4 16 1.6 25.2 9.9 28.1 25.4 2.2 26.5 5 51 8.2 72.8M240.1 192.5c.4 7.3-1.9 16.4-15.1 17.9h-58.4c-24.1-3.1-37.5-36.5-26.7-44.7 1.6-1.2 4.3-1.7 6.3-1.9h65.3c26.5 2.9 28.6 28.4 28.6 28.7M258.5 292.3c10.7 14 2.4 13.4-.4 12.9-2.3-.4-10.9-2.6-22.9-12.9-16.2-15.1-31.1-33.6-44.2-54.9-6.5-12.4-4.6-19.4 5.6-20.7 11.4 1.3 20.4 8.1 27.5 20.7 10.2 21.2 21.7 39.7 34.4 54.9"/><path class="st3" d="M333.4 278.6c-.5 3.3-3 11-14.1 12.1h-45.5c-19.5-2-33.9-24.8-23.5-31.1 1.5-.9 4-1.2 5.8-1.4h57.6c18.6 1.7 20.6 15.3 19.7 20.4M332.6 333.8c1 1 2 1.9 3 2.9-.1.1-4 .2-11.4-2.9-10-4.6-19.6-13.5-28.6-26-4.6-7.6-2.8-11.8 5.2-12.7 8.6.8 14.4 5 17.8 12.7 4.4 12.5 9.1 21.4 14 26M303.6 322c3.6 3.8 3.5 5.1 3.5 5.6-.4.3-1 .5-1.5.5H288c-8.5-.9-35.3-10.4-37.6-17.3.4-.5 1.2-.8 1.8-.9h29.6c10.7 1.1 19.4 9.5 21.8 12.1"/><path class="st3" d="M340.5 337.5c-9 0-17.8-.9-26.5-2.7-11.7-2.6-13.7-4.1-13.8-4.8.2 0 .5-.1.7-.1 1.5.1 1.5.1 19 4.9 6.7 1.8 13.6 2.7 20.6 2.7"/><path class="st3" d="M340.5 337.5c-1.8 0-3.5-.1-3.9-.1h2.7c.3 0 .7.1 1.2.1M401.3 128.3c-5.4 30-37.6 31.8-49.5 14.5-3.6-5.2-4.1-10.3-4.5-14.5.3-28.1.4-58.1.5-89.4 1.9-18.1 11.5-27.7 29.5-29.6 17.7 1.8 27 11.5 28.4 29.6-.6 31.3-2.1 61.3-4.4 89.4M536.1 103.9c-2 5.8-8.5 19.4-25.3 21.4H435c-29.7-3.2-29-37.4-10.4-50 5.6-3.8 11-4.4 15.3-4.8h79.8c21.9 2.8 19.1 25.6 16.4 33.4M466.9 232.1c-13.4 23-34.4 24.2-37.6 11.1-.9-3.9.1-7.9.9-11.1 7.5-21.7 14-46.2 19.2-72.8 4.4-15.5 13.6-23.8 28.2-25.4 13.8 1.6 19.2 9.9 16.3 25.4-7.2 26.5-16.4 51-27 72.8M431.4 192.5c-2 4.8-8.6 16.3-25.4 17.9h-73.2c-25.9-2.4-31-27.4-19-39.4 6-6 12.4-6.6 18.1-7.2h81.9c27.6 2.9 17.7 28.4 17.6 28.7M373.5 292.3c-7 15.8-23.9 16.9-28.4 5.3-.6-1.5-.8-3.7-.9-5.3.6-15.1 1.1-33.6 1.6-54.9 1.6-12.6 9.2-19.4 23.1-20.7 13.5 1.3 19.5 8.1 18.5 20.7-4.2 21.2-8.9 39.7-13.9 54.9M456.8 278.6c-2.6 2.5-12.1 10.9-22.9 12.1h-41.6c-14.7-1.6-11.1-19-.3-27.3 5.7-4.4 10.2-4.8 14.1-5.2h52.7c13.9 1.8 2.9 15.6-2 20.4M366.4 333.8c-8.2 2.2-13.6 2.9-16.7 3.1 3-1.3 6.2-1.9 9.2-3.1 11.4-4.6 22.3-13.5 32.4-26 4.4-4.9 11.4-11.6 21.8-12.7 4.9.6 8.6 3.3-1.1 12.7-14.3 12.5-29.6 21.4-45.6 26"/><path class="st3" d="M373.8 322c-.7.6-6.9 5.5-13.6 6.2H338.1c-9.1-.9-14.2-11.5-7.8-16.2 2-1.5 3.6-1.6 6.3-1.9h37.1c8.9.9 5.3 7.6.1 11.9M340.5 337.5c.4-.7.8-1.8.9-2.7.8-2.9 3.1-4.5 6.9-4.9 5.5.6 1.6 4.1 1.5 4.1-1.6 1.4-4.4 2.4-6.4 3.1-.8.4-2 .3-2.9.4"/><path class="st3" d="M340.5 337.5c1 0 2-.1 3-.1h2.4c-.9.1-3.1.1-5.4.1M579.9 128.3c-10.5 27.5-30.3 31.5-35.8 18.3-2.6-6.3-1.3-12.6-.2-18.3 7.4-28.1 12.4-58.1 14.6-89.4 2.4-18.1 9.4-27.8 21.4-29.6 11.8 1.9 17.4 11.5 17.2 29.6-2.6 31.3-8.4 61.3-17.2 89.4M651.2 103.9c-2 5.8-7.5 19.4-14.3 21.4h-36.2c-18-3.5-6.5-43.6 7.2-52.6 1.7-1.1 4.4-1.9 6.4-2.2h38.1c7.6 2.8 1.5 25.6-1.2 33.4M569.9 232.1c-12.1 13-22.7 20.5-27.1 19.1-1.3-2.9 1.6-8.4 10-19.1 17.8-21.7 33.1-46.2 45.3-72.8 7.9-15.8 15-23.8 22.3-25.4 6 1.6 5.4 10-1.6 25.4-13.1 26.5-29.6 51-48.9 72.8M575 192.5c-2.6 3.8-12 16.2-23.3 17.9H503c-17.9-2.4-11-27.4 2.9-39.4 6.9-6 11.6-6.6 16.2-7.2h54.4c13.2 2.5 3.1 22-1.5 28.7M470.3 292.3c-16 11.3-30.3 15.9-29 11 .8-3 7.1-8.8 9.4-11 17-15.1 32.6-33.6 46.3-54.9 9.1-12.8 17.9-19.4 27.8-20.7 8.4 1.3 8.3 8.3-.1 20.7-16.1 21.2-34.4 39.7-54.4 54.9"/><path class="st3" d="M525.3 278.6c-.6.4-15.6 10.6-22.1 12.1h-19.9l-1.2-.3c-2.4-5.3 25.7-30.1 39.2-32.2h25.2c.2.1.5.3.7.4-1.1 4.6-14.8 15.1-21.9 20M387.5 333.8c-5.3.8-16.4 2.4-28.2 3.1 12-1 17.3-1.9 24.7-3.1 26.9-4.6 52.7-13.5 76.7-26 16-8.3 23.5-11.9 28.1-12.7.2.1.5.2.7.3-1.4 3.5-14.3 10-19.1 12.4-26 12.5-53.8 21.4-82.9 26"/><path class="st3" d="M426.5 322c-7.3 2.6-17.6 5.6-22.4 6.2h-14.7c-.2 0-.5-.1-.7-.1v-.4c1.5-1.8 22.3-16.3 34.2-17.6h24.7c.3.1.6.2.9.2-.2 2.5-11.2 7.8-22 11.7M340.5 337.5c9.4 0 18.7-.9 27.8-2.7 7.7-1.6 15.2-4.1 23.1-4.9.1 0 .3.1.4.1-1.2.9-5.4 2.4-18.6 4.8-10.8 1.8-21.7 2.7-32.7 2.7"/><path class="st3" d="M340.5 337.5c3.6 0 5.3-.1 8.4-.1h1.2c-2.1 0-4.9.1-9.6.1"/></g><g class="st1"><path class="st4" d="M91.1-1114.8c.2 31.2-15.6 33.4-24.2 24.1-6.9-7.4-8.4-19.1-9.1-24.1-.6-9.1-1-18.3-1-27.6 0-22.9 2-45.2 5.7-66.8 4-17.1 10.8-26.2 21-27.9 9.6 1.7 13.3 10.6 11.7 27.9-3.3 21.6-5 43.9-5 66.8 0 9.2.3 18.5.9 27.6M50.8-1169.1c-1.6 9.7-5.2 21.7-13.5 23.7H10.6c-7.8-5.5 1.3-57.4 5.6-58.6h26.2c13.3 3.3 8.5 34.5 8.4 34.9M52.5-1017.7c10.3 29.7.8 25.2.7 25.2-1.6-.8-7.5-5-16.1-25.2-11.1-28.1-18.5-58.1-21.8-89.4-1.3-18.1.4-27.7 5.4-29.6 5.2 1.8 8.8 11.5 11.1 29.6 3.1 31.3 10.2 61.3 20.7 89.4"/><path class="st4" d="M127.4-1042.1c.8 12.7-3.6 19.9-13.1 21.4H65.7c-21-4.3-26.4-49.5-16.8-54.3.7-.3 1.7-.4 2.5-.6h51.1c18.9 2.9 24.5 25.7 24.9 33.5M158-913.9c14.3 22.1 2 19.5.6 19.1-2.5-.6-11.7-3.9-24.9-19.1-17.3-21.7-32.2-46.2-44.1-72.8-6-15.5-4.6-23.8 4.3-25.4 9.9 1.6 18.2 9.9 25.2 25.4 10.5 26.5 23.6 51 38.9 72.8M100.8-953.5c5.3 10.7 5.9 16.8 1.6 17.9h-21c-6.5-2.8-29.9-36.3-31-46.1.1-.2.3-.4.5-.5h23.4c13.6 2.8 26.4 28.4 26.5 28.7M184.4-853.7c16.8 10.6 18 11.5 19.3 12.9-3.3 0-13.9-4.9-27.6-12.9-25.4-15.1-48.6-33.6-69-54.9-4.2-4.6-14-15.2-13.7-20.2.3-.1.6-.3.9-.4 4.9 1.3 12.2 7.5 24.6 20.7 19.4 21.1 41.4 39.6 65.5 54.8"/><path class="st4" d="M213.7-867.4c8.9 10.9 4.1 11.8 2.6 12.1h-26.7c-12.4-2-44.2-25.1-41.4-32.1.4-.1.9-.3 1.3-.4h33.8c15.3 1.9 29.8 19.6 30.4 20.4M303.1-812.2c5.9 1.1 11 2.1 20.5 3-10.7-.6-20.7-2.2-25.5-3-26.2-4.6-51.3-13.5-74.6-26-8.5-4.8-13.5-8.1-15.1-11.6.1-.2.2-.6.3-.8.4-.1.9-.2 1.2-.3 6.5.9 15.3 5.5 27.4 12.7 20.5 12.5 42.6 21.4 65.8 26"/><path class="st4" d="M252.5-824c5.4 2 11 3.6 16.2 6-3.1.1-5.2.1-6.4.1-11.2-2-41-11.4-53.1-17.9 1.8-.2 5.4-.2 10.5-.2 2 .3 2 .3 32.8 12M340.5-808.5c-14 0-27.8-.9-41.4-2.7-21.3-3-26.5-4.9-26.5-4.9 9.6 1.3 19 3.5 28.6 4.9 12.8 1.8 25.9 2.7 39.3 2.7"/><path class="st4" d="M340.5-808.5c-3.4 0-6.4-.1-8.8-.1h1.6c3.3.1 4.3.1 7.2.1M287.9-1114.8c-2.8 33.4-33.7 34.3-47.1 20.6-7-7.1-7.8-14-8.6-20.6-.2-9.1-.4-18.3-.4-27.6 0-22.9.7-45.2 2.2-66.8 2.8-17.3 11.9-26.2 28.6-27.9 16.5 1.7 25 10.8 26.2 27.9-.7 21.6-1.1 43.9-1.1 66.8 0 9.2.1 18.5.2 27.6M219.2-1169.1c-1.7 7.9-7.2 21.5-25.7 23.7h-74.4c-24.3-3.6-23.4-40.3-8.1-53.7 4.4-3.9 8.5-4.4 11.8-4.9H196c29 3.4 23.3 34.5 23.2 34.9M189.3-1017.7c3.1 27.3-16.5 29.3-28.3 21.4-9.7-6.6-13.1-16.6-14.7-21.4-7.1-28.1-11.9-58.1-13.9-89.4.3-18.1 7.2-27.7 21.3-29.6 14.3 1.8 22.4 11.5 24.7 29.6 1.6 31.3 5.3 61.3 10.9 89.4M328.7-1042.1c-1.4 7.2-6.8 19.5-26.7 21.4h-82.9c-29.1-3.1-35.2-37.4-20-50 4.6-3.8 9.6-4.4 13.7-4.8H300c28.3 2.8 30.2 25.6 28.7 33.4M302-913.9c1.1 22.7-21.4 24-34 11.1-3.9-3.9-5.4-7.7-6.8-11.1-6.6-21.7-12.3-46.2-16.9-72.8-1.1-15.5 5.9-23.8 21.4-25.4 16 1.6 25.2 9.9 28.1 25.4 2.2 26.5 5 51 8.2 72.8M240.1-953.5c.4 7.3-1.9 16.4-15.1 17.9h-58.4c-24.1-3.1-37.5-36.5-26.7-44.7 1.6-1.2 4.3-1.7 6.3-1.9h65.3c26.5 2.9 28.6 28.4 28.6 28.7M258.5-853.7c10.7 14 2.4 13.4-.4 12.9-2.3-.4-10.9-2.6-22.9-12.9-16.2-15.1-31.1-33.6-44.2-54.9-6.5-12.4-4.6-19.4 5.6-20.7 11.4 1.3 20.4 8.1 27.5 20.7 10.2 21.2 21.7 39.7 34.4 54.9"/><path class="st4" d="M333.4-867.4c-.5 3.3-3 11-14.1 12.1h-45.5c-19.5-2-33.9-24.8-23.5-31.1 1.5-.9 4-1.2 5.8-1.4h57.6c18.6 1.7 20.6 15.3 19.7 20.4M332.6-812.2c1 1 2 1.9 3 2.9-.1.1-4 .2-11.4-2.9-10-4.6-19.6-13.5-28.6-26-4.6-7.6-2.8-11.8 5.2-12.7 8.6.8 14.4 5 17.8 12.7 4.4 12.5 9.1 21.4 14 26M303.6-824c3.6 3.8 3.5 5.1 3.5 5.6-.4.3-1 .5-1.5.5H288c-8.5-.9-35.3-10.4-37.6-17.3.4-.5 1.2-.8 1.8-.9h29.6c10.7 1.1 19.4 9.5 21.8 12.1"/><path class="st4" d="M340.5-808.5c-9 0-17.8-.9-26.5-2.7-11.7-2.6-13.7-4.1-13.8-4.8.2 0 .5-.1.7-.1 1.5.1 1.5.1 19 4.9 6.7 1.8 13.6 2.7 20.6 2.7"/><path class="st4" d="M340.5-808.5c-1.8 0-3.5-.1-3.9-.1h2.7c.3 0 .7.1 1.2.1M513.3-1114.8c-4.3 33.1-32.1 34.2-43.4 20.6-6-7.1-6.3-14-6.7-20.6.3-9.1.4-18.3.4-27.6 0-22.9-.8-45.2-2.5-66.8.2-17.1 7.5-26.2 22.1-27.9 15 1.7 23.8 10.8 27.1 27.9 2.3 21.6 3.5 43.9 3.5 66.8.1 9.2-.1 18.5-.5 27.6M450.4-1169.1c-1.3 7.9-6.4 21.6-26.4 23.7h-93.2c-33.8-3.4-34.6-36.6-20.6-50.2 7.2-7.1 14.1-7.7 20.8-8.4h91.7c31.8 3.4 27.8 34.5 27.7 34.9M401.3-1017.7c-5.4 30-37.6 31.8-49.5 14.5-3.6-5.2-4.1-10.3-4.5-14.5.3-28.1.4-58.1.5-89.4 1.9-18.1 11.5-27.7 29.5-29.6 17.7 1.8 27 11.5 28.4 29.6-.6 31.3-2.1 61.3-4.4 89.4M536.1-1042.1c-2 5.8-8.5 19.4-25.3 21.4H435c-29.7-3.2-29-37.4-10.4-50 5.6-3.8 11-4.4 15.3-4.8h79.8c21.9 2.8 19.1 25.6 16.4 33.4M466.9-913.9c-13.4 23-34.4 24.2-37.6 11.1-.9-3.9.1-7.9.9-11.1 7.5-21.7 14-46.2 19.2-72.8 4.4-15.5 13.6-23.8 28.2-25.4 13.8 1.6 19.2 9.9 16.3 25.4-7.2 26.5-16.4 51-27 72.8M431.4-953.5c-2 4.8-8.6 16.3-25.4 17.9h-73.2c-25.9-2.4-31-27.4-19-39.4 6-6 12.4-6.6 18.1-7.2h81.9c27.6 2.9 17.7 28.4 17.6 28.7M373.5-853.7c-7 15.8-23.9 16.9-28.4 5.3-.6-1.5-.8-3.7-.9-5.3.6-15.1 1.1-33.6 1.6-54.9 1.6-12.6 9.2-19.4 23.1-20.7 13.5 1.3 19.5 8.1 18.5 20.7-4.2 21.2-8.9 39.7-13.9 54.9M456.8-867.4c-2.6 2.5-12.1 10.9-22.9 12.1h-41.6c-14.7-1.6-11.1-19-.3-27.3 5.7-4.4 10.2-4.8 14.1-5.2h52.7c13.9 1.8 2.9 15.6-2 20.4M366.4-812.2c-8.2 2.2-13.6 2.9-16.7 3.1 3-1.3 6.2-1.9 9.2-3.1 11.4-4.6 22.3-13.5 32.4-26 4.4-4.9 11.4-11.6 21.8-12.7 4.9.6 8.6 3.3-1.1 12.7-14.3 12.5-29.6 21.4-45.6 26"/><path class="st4" d="M373.8-824c-.7.6-6.9 5.5-13.6 6.2H338.1c-9.1-.9-14.2-11.5-7.8-16.2 2-1.5 3.6-1.6 6.3-1.9h37.1c8.9.9 5.3 7.6.1 11.9M340.5-808.5c.4-.7.8-1.8.9-2.7.8-2.9 3.1-4.5 6.9-4.9 5.5.6 1.6 4.1 1.5 4.1-1.6 1.4-4.4 2.4-6.4 3.1-.8.4-2 .3-2.9.4"/><path class="st4" d="M340.5-808.5c1 0 2-.1 3-.1h2.4c-.9.1-3.1.1-5.4.1M654.1-1114.8c-3.4 29-13.8 31.8-18.3 26.8-5.7-6.4-5.2-21.2-5.1-26.8.7-9.1 1-18.3 1-27.6 0-22.9-2-45.2-5.8-66.8-2.4-17.3-.4-26.2 6.2-27.9 7.3 1.7 12.8 10.8 16.7 27.9 4.1 21.6 6.3 43.9 6.3 66.8.1 9.2-.3 18.5-1 27.6M623.9-1169.1c-.3 7.9-2.5 21.5-14.5 23.7h-62c-25.8-3.5-29.5-40.3-15.2-53.7 4.1-3.9 6.6-4.2 11.7-4.9h61c16.4 2.9 19.3 26.7 19 34.9M579.9-1017.7c-10.5 27.5-30.3 31.5-35.8 18.3-2.6-6.3-1.3-12.6-.2-18.3 7.4-28.1 12.4-58.1 14.6-89.4 2.4-18.1 9.4-27.8 21.4-29.6 11.8 1.9 17.4 11.5 17.2 29.6-2.6 31.3-8.4 61.3-17.2 89.4M651.2-1042.1c-2 5.8-7.5 19.4-14.3 21.4h-36.2c-18-3.5-6.5-43.6 7.2-52.6 1.7-1.1 4.4-1.9 6.4-2.2h38.1c7.6 2.8 1.5 25.6-1.2 33.4M569.9-913.9c-12.1 13-22.7 20.5-27.1 19.1-1.3-2.9 1.6-8.4 10-19.1 17.8-21.7 33.1-46.2 45.3-72.8 7.9-15.8 15-23.8 22.3-25.4 6 1.6 5.4 10-1.6 25.4-13.1 26.5-29.6 51-48.9 72.8M575-953.5c-2.6 3.8-12 16.2-23.3 17.9H503c-17.9-2.4-11-27.4 2.9-39.4 6.9-6 11.6-6.6 16.2-7.2h54.4c13.2 2.5 3.1 22-1.5 28.7M470.3-853.7c-16 11.3-30.3 15.9-29 11 .8-3 7.1-8.8 9.4-11 17-15.1 32.6-33.6 46.3-54.9 9.1-12.8 17.9-19.4 27.8-20.7 8.4 1.3 8.3 8.3-.1 20.7-16.1 21.2-34.4 39.7-54.4 54.9"/><path class="st4" d="M525.3-867.4c-.6.4-15.6 10.6-22.1 12.1h-19.9l-1.2-.3c-2.4-5.3 25.7-30.1 39.2-32.2h25.2c.2.1.5.3.7.4-1.1 4.6-14.8 15.1-21.9 20M387.5-812.2c-5.3.8-16.4 2.4-28.2 3.1 12-1 17.3-1.9 24.7-3.1 26.9-4.6 52.7-13.5 76.7-26 16-8.3 23.5-11.9 28.1-12.7.2.1.5.2.7.3-1.4 3.5-14.3 10-19.1 12.4-26 12.5-53.8 21.4-82.9 26"/><path class="st4" d="M426.5-824c-7.3 2.6-17.6 5.6-22.4 6.2h-14.7c-.2 0-.5-.1-.7-.1v-.4c1.5-1.8 22.3-16.3 34.2-17.6h24.7c.3.1.6.2.9.2-.2 2.5-11.2 7.8-22 11.7M340.5-808.5c9.4 0 18.7-.9 27.8-2.7 7.7-1.6 15.2-4.1 23.1-4.9.1 0 .3.1.4.1-1.2.9-5.4 2.4-18.6 4.8-10.8 1.8-21.7 2.7-32.7 2.7"/><path class="st4" d="M340.5-808.5c3.6 0 5.3-.1 8.4-.1h1.2c-2.1 0-4.9.1-9.6.1"/></g><g class="st1"><path class="st3" d="M-941.9-1139.8c.2 31.2-15.6 33.4-24.2 24.1-6.9-7.4-8.4-19.1-9.1-24.1-.6-9.1-1-18.3-1-27.6 0-22.9 2-45.2 5.7-66.8 4-17.1 10.8-26.2 21-27.9 9.6 1.7 13.3 10.6 11.7 27.9-3.3 21.6-5 43.9-5 66.8 0 9.2.3 18.5.9 27.6M-980.5-1042.7c10.3 29.7.8 25.2.7 25.2-1.6-.8-7.5-5-16.1-25.2-11.1-28.1-18.5-58.1-21.8-89.4-1.3-18.1.4-27.7 5.4-29.6 5.2 1.8 8.8 11.5 11.1 29.6 3.1 31.3 10.2 61.3 20.7 89.4"/><path class="st3" d="M-905.6-1067.1c.8 12.7-3.6 19.9-13.1 21.4h-48.6c-21-4.3-26.4-49.5-16.8-54.3.7-.3 1.7-.4 2.5-.6h51.1c18.9 2.9 24.5 25.7 24.9 33.5M-875-938.9c14.3 22.1 2 19.5.6 19.1-2.5-.6-11.7-3.9-24.9-19.1-17.3-21.7-32.2-46.2-44.1-72.8-6-15.5-4.6-23.8 4.3-25.4 9.9 1.6 18.2 9.9 25.2 25.4 10.5 26.5 23.6 51 38.9 72.8M-932.2-978.5c5.3 10.7 5.9 16.8 1.6 17.9h-21c-6.5-2.8-29.9-36.3-31-46.1.1-.2.3-.4.5-.5h23.4c13.6 2.8 26.4 28.4 26.5 28.7M-848.6-878.7c16.8 10.6 18 11.5 19.3 12.9-3.3 0-13.9-4.9-27.6-12.9-25.4-15.1-48.6-33.6-69-54.9-4.2-4.6-14-15.2-13.7-20.2.3-.1.6-.3.9-.4 4.9 1.3 12.2 7.5 24.6 20.7 19.4 21.1 41.4 39.6 65.5 54.8"/><path class="st3" d="M-819.3-892.4c8.9 10.9 4.1 11.8 2.6 12.1h-26.7c-12.4-2-44.2-25.1-41.4-32.1.4-.1.9-.3 1.3-.4h33.8c15.3 1.9 29.8 19.6 30.4 20.4M-729.9-837.2c5.9 1.1 11 2.1 20.5 3-10.7-.6-20.7-2.2-25.5-3-26.2-4.6-51.3-13.5-74.6-26-8.5-4.8-13.5-8.1-15.1-11.6.1-.2.2-.6.3-.8.4-.1.9-.2 1.2-.3 6.5.9 15.3 5.5 27.4 12.7 20.5 12.5 42.6 21.4 65.8 26"/><path class="st3" d="M-780.5-849c5.4 2 11 3.6 16.2 6-3.1.1-5.2.1-6.4.1-11.2-2-41-11.4-53.1-17.9 1.8-.2 5.4-.2 10.5-.2 2 .3 2 .3 32.8 12M-692.5-833.5c-14 0-27.8-.9-41.4-2.7-21.3-3-26.5-4.9-26.5-4.9 9.6 1.3 19 3.5 28.6 4.9 12.8 1.8 25.9 2.7 39.3 2.7"/><path class="st3" d="M-692.5-833.5c-3.4 0-6.4-.1-8.8-.1h1.6c3.3.1 4.3.1 7.2.1M-843.7-1042.7c3.1 27.3-16.5 29.3-28.3 21.4-9.7-6.6-13.1-16.6-14.7-21.4-7.1-28.1-11.9-58.1-13.9-89.4.3-18.1 7.2-27.7 21.3-29.6 14.3 1.8 22.4 11.5 24.7 29.6 1.6 31.3 5.3 61.3 10.9 89.4M-704.3-1067.1c-1.4 7.2-6.8 19.5-26.7 21.4h-82.9c-29.1-3.1-35.2-37.4-20-50 4.6-3.8 9.6-4.4 13.7-4.8h87.2c28.3 2.8 30.2 25.6 28.7 33.4M-731-938.9c1.1 22.7-21.4 24-34 11.1-3.9-3.9-5.4-7.7-6.8-11.1-6.6-21.7-12.3-46.2-16.9-72.8-1.1-15.5 5.9-23.8 21.4-25.4 16 1.6 25.2 9.9 28.1 25.4 2.2 26.5 5 51 8.2 72.8M-792.9-978.5c.4 7.3-1.9 16.4-15.1 17.9h-58.4c-24.1-3.1-37.5-36.5-26.7-44.7 1.6-1.2 4.3-1.7 6.3-1.9h65.3c26.5 2.9 28.6 28.4 28.6 28.7M-774.5-878.7c10.7 14 2.4 13.4-.4 12.9-2.3-.4-10.9-2.6-22.9-12.9-16.2-15.1-31.1-33.6-44.2-54.9-6.5-12.4-4.6-19.4 5.6-20.7 11.4 1.3 20.4 8.1 27.5 20.7 10.2 21.2 21.7 39.7 34.4 54.9"/><path class="st3" d="M-699.6-892.4c-.5 3.3-3 11-14.1 12.1h-45.5c-19.5-2-33.9-24.8-23.5-31.1 1.5-.9 4-1.2 5.8-1.4h57.6c18.6 1.7 20.6 15.3 19.7 20.4M-700.4-837.2c1 1 2 1.9 3 2.9-.1.1-4 .2-11.4-2.9-10-4.6-19.6-13.5-28.6-26-4.6-7.6-2.8-11.8 5.2-12.7 8.6.8 14.4 5 17.8 12.7 4.4 12.5 9.1 21.4 14 26M-729.4-849c3.6 3.8 3.5 5.1 3.5 5.6-.4.3-1 .5-1.5.5H-745c-8.5-.9-35.3-10.4-37.6-17.3.4-.5 1.2-.8 1.8-.9h29.6c10.7 1.1 19.4 9.5 21.8 12.1"/><path class="st3" d="M-692.5-833.5c-9 0-17.8-.9-26.5-2.7-11.7-2.6-13.7-4.1-13.8-4.8.2 0 .5-.1.7-.1 1.5.1 1.5.1 19 4.9 6.7 1.8 13.6 2.7 20.6 2.7"/><path class="st3" d="M-692.5-833.5c-1.8 0-3.5-.1-3.9-.1h2.7c.3 0 .7.1 1.2.1M-631.7-1042.7c-5.4 30-37.6 31.8-49.5 14.5-3.6-5.2-4.1-10.3-4.5-14.5.3-28.1.4-58.1.5-89.4 1.9-18.1 11.5-27.7 29.5-29.6 17.7 1.8 27 11.5 28.4 29.6-.6 31.3-2.1 61.3-4.4 89.4M-496.9-1067.1c-2 5.8-8.5 19.4-25.3 21.4H-598c-29.7-3.2-29-37.4-10.4-50 5.6-3.8 11-4.4 15.3-4.8h79.8c21.9 2.8 19.1 25.6 16.4 33.4M-566.1-938.9c-13.4 23-34.4 24.2-37.6 11.1-.9-3.9.1-7.9.9-11.1 7.5-21.7 14-46.2 19.2-72.8 4.4-15.5 13.6-23.8 28.2-25.4 13.8 1.6 19.2 9.9 16.3 25.4-7.2 26.5-16.4 51-27 72.8M-601.6-978.5c-2 4.8-8.6 16.3-25.4 17.9h-73.2c-25.9-2.4-31-27.4-19-39.4 6-6 12.4-6.6 18.1-7.2h81.9c27.6 2.9 17.7 28.4 17.6 28.7M-659.5-878.7c-7 15.8-23.9 16.9-28.4 5.3-.6-1.5-.8-3.7-.9-5.3.6-15.1 1.1-33.6 1.6-54.9 1.6-12.6 9.2-19.4 23.1-20.7 13.5 1.3 19.5 8.1 18.5 20.7-4.2 21.2-8.9 39.7-13.9 54.9M-576.2-892.4c-2.6 2.5-12.1 10.9-22.9 12.1h-41.6c-14.7-1.6-11.1-19-.3-27.3 5.7-4.4 10.2-4.8 14.1-5.2h52.7c13.9 1.8 2.9 15.6-2 20.4M-666.6-837.2c-8.2 2.2-13.6 2.9-16.7 3.1 3-1.3 6.2-1.9 9.2-3.1 11.4-4.6 22.3-13.5 32.4-26 4.4-4.9 11.4-11.6 21.8-12.7 4.9.6 8.6 3.3-1.1 12.7-14.3 12.5-29.6 21.4-45.6 26"/><path class="st3" d="M-659.2-849c-.7.6-6.9 5.5-13.6 6.2H-694.9c-9.1-.9-14.2-11.5-7.8-16.2 2-1.5 3.6-1.6 6.3-1.9h37.1c8.9.9 5.3 7.6.1 11.9M-692.5-833.5c.4-.7.8-1.8.9-2.7.8-2.9 3.1-4.5 6.9-4.9 5.5.6 1.6 4.1 1.5 4.1-1.6 1.4-4.4 2.4-6.4 3.1-.8.4-2 .3-2.9.4"/><path class="st3" d="M-692.5-833.5c1 0 2-.1 3-.1h2.4c-.9.1-3.1.1-5.4.1M-378.9-1139.8c-3.4 29-13.8 31.8-18.3 26.8-5.7-6.4-5.2-21.2-5.1-26.8.7-9.1 1-18.3 1-27.6 0-22.9-2-45.2-5.8-66.8-2.4-17.3-.4-26.2 6.2-27.9 7.3 1.7 12.8 10.8 16.7 27.9 4.1 21.6 6.3 43.9 6.3 66.8.1 9.2-.3 18.5-1 27.6M-453.1-1042.7c-10.5 27.5-30.3 31.5-35.8 18.3-2.6-6.3-1.4-12.6-.2-18.3 7.4-28.1 12.4-58.1 14.6-89.4 2.4-18.1 9.4-27.8 21.4-29.6 11.8 1.9 17.4 11.5 17.2 29.6-2.6 31.3-8.4 61.3-17.2 89.4M-381.8-1067.1c-2 5.8-7.5 19.4-14.3 21.4h-36.2c-18-3.5-6.5-43.6 7.2-52.6 1.7-1.1 4.4-1.9 6.4-2.2h38.1c7.6 2.8 1.5 25.6-1.2 33.4M-463.1-938.9c-12.1 13-22.7 20.5-27.1 19.1-1.3-2.9 1.6-8.4 10-19.1 17.8-21.7 33.1-46.2 45.3-72.8 7.9-15.8 15-23.8 22.3-25.4 6 1.6 5.4 10-1.6 25.4-13.1 26.5-29.6 51-48.9 72.8M-458-978.5c-2.6 3.8-12 16.2-23.3 17.9H-530c-17.9-2.4-10.9-27.4 2.9-39.4 6.9-6 11.6-6.6 16.2-7.2h54.4c13.2 2.5 3.1 22-1.5 28.7M-562.7-878.7c-16 11.3-30.3 15.9-29 11 .8-3 7.1-8.8 9.4-11 17-15.1 32.6-33.6 46.3-54.9 9.1-12.8 17.9-19.4 27.8-20.7 8.4 1.3 8.3 8.3-.1 20.7-16.1 21.2-34.4 39.7-54.4 54.9"/><path class="st3" d="M-507.7-892.4c-.6.4-15.6 10.6-22.1 12.1h-19.9l-1.2-.3c-2.4-5.3 25.7-30.1 39.2-32.2h25.2c.2.1.5.3.7.4-1.1 4.6-14.8 15.1-21.9 20M-645.5-837.2c-5.3.8-16.4 2.4-28.2 3.1 12-1 17.3-1.9 24.7-3.1 26.9-4.6 52.7-13.5 76.7-26 16-8.3 23.5-11.9 28.1-12.7.2.1.5.2.7.3-1.4 3.5-14.3 10-19.1 12.4-26 12.5-53.8 21.4-82.9 26"/><path class="st3" d="M-606.5-849c-7.3 2.6-17.6 5.6-22.4 6.2h-14.7c-.2 0-.5-.1-.7-.1v-.4c1.5-1.8 22.3-16.3 34.2-17.6h24.7c.3.1.6.2.9.2-.2 2.5-11.2 7.8-22 11.7M-692.5-833.5c9.4 0 18.7-.9 27.8-2.7 7.7-1.6 15.2-4.1 23.1-4.9.1 0 .3.1.4.1-1.2.9-5.4 2.4-18.6 4.8-10.8 1.8-21.7 2.7-32.7 2.7"/><path class="st3" d="M-692.5-833.5c3.6 0 5.3-.1 8.4-.1h1.2c-2.1 0-4.9.1-9.6.1"/></g><g class="st1"><path class="st3" d="M-910.5-391.7c10.3 29.7.8 25.2.7 25.2-1.6-.8-7.5-5-16.1-25.2-11.1-28.1-18.5-58.1-21.8-89.4-1.3-18.1.4-27.7 5.4-29.6 5.2 1.8 8.8 11.5 11.1 29.6 3.1 31.3 10.2 61.3 20.7 89.4"/><path class="st3" d="M-835.6-416.1c.8 12.7-3.6 19.9-13.1 21.4h-48.6c-21-4.3-26.4-49.5-16.8-54.3.7-.3 1.7-.4 2.5-.6h51.1c18.9 2.9 24.5 25.7 24.9 33.5M-805-287.9c14.3 22.1 2 19.5.6 19.1-2.5-.6-11.7-3.9-24.9-19.1-17.3-21.7-32.2-46.2-44.1-72.8-6-15.5-4.6-23.8 4.3-25.4 9.9 1.6 18.2 9.9 25.2 25.4 10.5 26.5 23.6 51 38.9 72.8M-862.2-327.5c5.3 10.7 5.9 16.8 1.6 17.9h-21c-6.5-2.8-29.9-36.3-31-46.1.1-.2.3-.4.5-.5h23.4c13.6 2.8 26.4 28.4 26.5 28.7M-778.6-227.7c16.8 10.6 18 11.5 19.3 12.9-3.3 0-13.9-4.9-27.6-12.9-25.4-15.1-48.6-33.6-69-54.9-4.2-4.6-14-15.2-13.7-20.2.3-.1.6-.3.9-.4 4.9 1.3 12.2 7.5 24.6 20.7 19.4 21.1 41.4 39.6 65.5 54.8"/><path class="st3" d="M-749.3-241.4c8.9 10.9 4.1 11.8 2.6 12.1h-26.7c-12.4-2-44.2-25.1-41.4-32.1.4-.1.9-.3 1.3-.4h33.8c15.3 1.9 29.8 19.6 30.4 20.4M-659.9-186.2c5.9 1.1 11 2.1 20.5 3-10.7-.6-20.7-2.2-25.5-3-26.2-4.6-51.3-13.5-74.6-26-8.5-4.8-13.5-8.1-15.1-11.6.1-.2.2-.6.3-.8.4-.1.9-.2 1.2-.3 6.5.9 15.3 5.5 27.4 12.7 20.5 12.5 42.6 21.4 65.8 26"/><path class="st3" d="M-710.5-198c5.4 2 11 3.6 16.2 6-3.1.1-5.2.1-6.4.1-11.2-2-41-11.4-53.1-17.9 1.8-.2 5.4-.2 10.5-.2 2 .3 2 .3 32.8 12M-622.5-182.5c-14 0-27.8-.9-41.4-2.7-21.3-3-26.5-4.9-26.5-4.9 9.6 1.3 19 3.5 28.6 4.9 12.8 1.8 25.9 2.7 39.3 2.7"/><path class="st3" d="M-622.5-182.5c-3.4 0-6.4-.1-8.8-.1h1.6c3.3.1 4.3.1 7.2.1M-773.7-391.7c3.1 27.3-16.5 29.3-28.3 21.4-9.7-6.6-13.1-16.6-14.7-21.4-7.1-28.1-11.9-58.1-13.9-89.4.3-18.1 7.2-27.7 21.3-29.6 14.3 1.8 22.4 11.5 24.7 29.6 1.6 31.3 5.3 61.3 10.9 89.4M-634.3-416.1c-1.4 7.2-6.8 19.5-26.7 21.4h-82.9c-29.1-3.1-35.2-37.4-20-50 4.6-3.8 9.6-4.4 13.7-4.8h87.2c28.3 2.8 30.2 25.6 28.7 33.4M-661-287.9c1.1 22.7-21.4 24-34 11.1-3.9-3.9-5.4-7.7-6.8-11.1-6.6-21.7-12.3-46.2-16.9-72.8-1.1-15.5 5.9-23.8 21.4-25.4 16 1.6 25.2 9.9 28.1 25.4 2.2 26.5 5 51 8.2 72.8M-722.9-327.5c.4 7.3-1.9 16.4-15.1 17.9h-58.4c-24.1-3.1-37.5-36.5-26.7-44.7 1.6-1.2 4.3-1.7 6.3-1.9h65.3c26.5 2.9 28.6 28.4 28.6 28.7M-704.5-227.7c10.7 14 2.4 13.4-.4 12.9-2.3-.4-10.9-2.6-22.9-12.9-16.2-15.1-31.1-33.6-44.2-54.9-6.5-12.4-4.6-19.4 5.6-20.7 11.4 1.3 20.4 8.1 27.5 20.7 10.2 21.2 21.7 39.7 34.4 54.9"/><path class="st3" d="M-629.6-241.4c-.5 3.3-3 11-14.1 12.1h-45.5c-19.5-2-33.9-24.8-23.5-31.1 1.5-.9 4-1.2 5.8-1.4h57.6c18.6 1.7 20.6 15.3 19.7 20.4M-630.4-186.2c1 1 2 1.9 3 2.9-.1.1-4 .2-11.4-2.9-10-4.6-19.6-13.5-28.6-26-4.6-7.6-2.8-11.8 5.2-12.7 8.6.8 14.4 5 17.8 12.7 4.4 12.5 9.1 21.4 14 26M-659.4-198c3.6 3.8 3.5 5.1 3.5 5.6-.4.3-1 .5-1.5.5H-675c-8.5-.9-35.3-10.4-37.6-17.3.4-.5 1.2-.8 1.8-.9h29.6c10.7 1.1 19.4 9.5 21.8 12.1"/><path class="st3" d="M-622.5-182.5c-9 0-17.8-.9-26.5-2.7-11.7-2.6-13.7-4.1-13.8-4.8.2 0 .5-.1.7-.1 1.5.1 1.5.1 19 4.9 6.7 1.8 13.6 2.7 20.6 2.7"/><path class="st3" d="M-622.5-182.5c-1.8 0-3.5-.1-3.9-.1h2.7c.3 0 .7.1 1.2.1M-561.7-391.7c-5.4 30-37.6 31.8-49.5 14.5-3.6-5.2-4.1-10.3-4.5-14.5.3-28.1.4-58.1.5-89.4 1.9-18.1 11.5-27.7 29.5-29.6 17.7 1.8 27 11.5 28.4 29.6-.6 31.3-2.1 61.3-4.4 89.4M-426.9-416.1c-2 5.8-8.5 19.4-25.3 21.4H-528c-29.7-3.2-29-37.4-10.4-50 5.6-3.8 11-4.4 15.3-4.8h79.8c21.9 2.8 19.1 25.6 16.4 33.4M-496.1-287.9c-13.4 23-34.4 24.2-37.6 11.1-.9-3.9.1-7.9.9-11.1 7.5-21.7 14-46.2 19.2-72.8 4.4-15.5 13.6-23.8 28.2-25.4 13.8 1.6 19.2 9.9 16.3 25.4-7.2 26.5-16.4 51-27 72.8M-531.6-327.5c-2 4.8-8.6 16.3-25.4 17.9h-73.2c-25.9-2.4-31-27.4-19-39.4 6-6 12.4-6.6 18.1-7.2h81.9c27.6 2.9 17.7 28.4 17.6 28.7M-589.5-227.7c-7 15.8-23.9 16.9-28.4 5.3-.6-1.5-.8-3.7-.9-5.3.6-15.1 1.1-33.6 1.6-54.9 1.6-12.6 9.2-19.4 23.1-20.7 13.5 1.3 19.5 8.1 18.5 20.7-4.2 21.2-8.9 39.7-13.9 54.9M-506.2-241.4c-2.6 2.5-12.1 10.9-22.9 12.1h-41.6c-14.7-1.6-11.1-19-.3-27.3 5.7-4.4 10.2-4.8 14.1-5.2h52.7c13.9 1.8 2.9 15.6-2 20.4M-596.6-186.2c-8.2 2.2-13.6 2.9-16.7 3.1 3-1.3 6.2-1.9 9.2-3.1 11.4-4.6 22.3-13.5 32.4-26 4.4-4.9 11.4-11.6 21.8-12.7 4.9.6 8.6 3.3-1.1 12.7-14.3 12.5-29.6 21.4-45.6 26"/><path class="st3" d="M-589.2-198c-.7.6-6.9 5.5-13.6 6.2H-624.9c-9.1-.9-14.2-11.5-7.8-16.2 2-1.5 3.6-1.6 6.3-1.9h37.1c8.9.9 5.3 7.6.1 11.9M-622.5-182.5c.4-.7.8-1.8.9-2.7.8-2.9 3.1-4.5 6.9-4.9 5.5.6 1.6 4.1 1.5 4.1-1.6 1.4-4.4 2.4-6.4 3.1-.8.4-2 .3-2.9.4"/><path class="st3" d="M-622.5-182.5c1 0 2-.1 3-.1h2.4c-.9.1-3.1.1-5.4.1M-383.1-391.7c-10.5 27.5-30.3 31.5-35.8 18.3-2.6-6.3-1.4-12.6-.2-18.3 7.4-28.1 12.4-58.1 14.6-89.4 2.4-18.1 9.4-27.8 21.4-29.6 11.8 1.9 17.4 11.5 17.2 29.6-2.6 31.3-8.4 61.3-17.2 89.4M-311.8-416.1c-2 5.8-7.5 19.4-14.3 21.4h-36.2c-18-3.5-6.5-43.6 7.2-52.6 1.7-1.1 4.4-1.9 6.4-2.2h38.1c7.6 2.8 1.5 25.6-1.2 33.4M-393.1-287.9c-12.1 13-22.7 20.5-27.1 19.1-1.3-2.9 1.6-8.4 10-19.1 17.8-21.7 33.1-46.2 45.3-72.8 7.9-15.8 15-23.8 22.3-25.4 6 1.6 5.4 10-1.6 25.4-13.1 26.5-29.6 51-48.9 72.8M-388-327.5c-2.6 3.8-12 16.2-23.3 17.9H-460c-17.9-2.4-10.9-27.4 2.9-39.4 6.9-6 11.6-6.6 16.2-7.2h54.4c13.2 2.5 3.1 22-1.5 28.7M-492.7-227.7c-16 11.3-30.3 15.9-29 11 .8-3 7.1-8.8 9.4-11 17-15.1 32.6-33.6 46.3-54.9 9.1-12.8 17.9-19.4 27.8-20.7 8.4 1.3 8.3 8.3-.1 20.7-16.1 21.2-34.4 39.7-54.4 54.9"/><path class="st3" d="M-437.7-241.4c-.6.4-15.6 10.6-22.1 12.1h-19.9l-1.2-.3c-2.4-5.3 25.7-30.1 39.2-32.2h25.2c.2.1.5.3.7.4-1.1 4.6-14.8 15.1-21.9 20M-575.5-186.2c-5.3.8-16.4 2.4-28.2 3.1 12-1 17.3-1.9 24.7-3.1 26.9-4.6 52.7-13.5 76.7-26 16-8.3 23.5-11.9 28.1-12.7.2.1.5.2.7.3-1.4 3.5-14.3 10-19.1 12.4-26 12.5-53.8 21.4-82.9 26"/><path class="st3" d="M-536.5-198c-7.3 2.6-17.6 5.6-22.4 6.2h-14.7c-.2 0-.5-.1-.7-.1v-.4c1.5-1.8 22.3-16.3 34.2-17.6h24.7c.3.1.6.2.9.2-.2 2.5-11.2 7.8-22 11.7M-622.5-182.5c9.4 0 18.7-.9 27.8-2.7 7.7-1.6 15.2-4.1 23.1-4.9.1 0 .3.1.4.1-1.2.9-5.4 2.4-18.6 4.8-10.8 1.8-21.7 2.7-32.7 2.7"/><path class="st3" d="M-622.5-182.5c3.6 0 5.3-.1 8.4-.1h1.2c-2.1 0-4.9.1-9.6.1"/></g><path class="st5" d="M3961.3-306.4c2.3 20.9-20.7 22.2-30.9 12.9-5-4.6-5.4-8.8-5.9-12.9v-46.7c1-9.3 7.3-10 9.4-10.2 6.1.6 10.6 3.9 13.9 10.2 4.9 12.1 9.4 27.9 13.5 46.7M3917.3-335.4c-1.1 4-4.9 10.8-17 11.9h-49.6c-13.2-1.5-5.5-13.6 2.5-19.9 8.5-6.7 14.8-7.3 16.9-7.5h36.6c12.1 1.2 11.4 12.5 10.6 15.5M3873.5-235.2c-6.1 26.7-33.7 28.4-42.7 16.7-4.5-5.9-3.7-11.4-3-16.7 6-24.8 13.1-47.1 21.1-66.5 5.4-10.5 13.1-16.1 23.5-17.2 6 .6 13.9 3.1 12.2 17.2-4.2 19.3-7.9 41.7-11.1 66.5M4000.1-255.8c.2 6-1.9 16.2-18.4 17.9h-77.1c-26.6-2.6-25-26.7-13-37.1 5.8-5 10.8-5.5 15.6-5.9h67.1c24 2.4 25.8 24.9 25.8 25.1M3981.7-120.9c-2 32.9-34.5 33.8-48.4 20.2-7.3-7.1-8-13.8-8.6-20.2v-85.4c1.6-14.8 9.7-22.6 24.7-24.1 15.2 1.5 23.7 9.1 26.7 24.1 2.5 26.5 4.4 55.2 5.6 85.4M3911.1-170.8c-1.6 7.1-7.5 19.4-27.8 21.4h-84.5c-27.1-3.1-22.6-32.8-9-44.9 6.9-6.2 12.4-6.8 17.7-7.4h78.6c25.7 2.5 26.7 23.7 25 30.9M3862.9-18.6c-2.7 33.4-33.2 34.4-46.5 20.7-6.9-7.2-7.8-14-8.6-20.7-.3-9.2-.4-18.5-.4-27.9 0-22.9.8-45.3 2.4-66.9 2.9-17.4 12-26.3 28.5-28 16.3 1.7 24.7 10.9 25.7 28-.8 21.6-1.2 44-1.2 66.9-.1 9.4 0 18.7.1 27.9M4021.6-45.9c-1.8 9.8-8 21.8-27.4 23.9H3900.3c-36.5-3.7-34.5-42.3-16.3-54.7 5.8-4 11.7-4.6 16.4-5h93.6c32.6 3.5 27.6 35.5 27.6 35.8M3977 103.3c-5.6 28.9-36.1 30.6-47.9 13.9-3.5-5-4-9.7-4.4-13.9V16.5c1.8-17.7 11.5-27.2 29.5-29 17.7 1.8 26.8 11.3 28 29-1.1 30.7-2.9 59.8-5.2 86.8M3910.8 55.3c-1.4 7.2-6.8 19.5-26.5 21.5h-82.6c-29-3.2-35.3-37.5-20.1-50.1 4.6-3.8 9.6-4.4 13.6-4.8h86.9c28.3 2.8 30.2 25.6 28.7 33.4M3879.6 182.9c1.6 21.2-17.2 23.6-29.9 14-6.3-4.8-8.3-9.5-10.3-14-7.2-21.8-13.4-46.3-18.4-73-1.3-15.6 5.4-23.9 20.7-25.5 15.8 1.6 25.1 10 28.1 25.5 2.7 26.7 6 51.2 9.8 73M3999.9 163.7c-2 4.6-8.3 15.3-24.2 16.9h-69.1c-26.7-2.5-30.6-30-15.9-40.1 4.6-3.1 9.5-3.6 13.4-4h78.8c26.8 2.7 17.1 26.9 17 27.2M3949.6 255.4c-6.4 13.4-20.1 14.2-24.1 4.6-.5-1.3-.8-3.2-.9-4.6v-49.2c1.3-11.7 8.2-17.9 21.2-19.2 12.6 1.2 18.2 7.5 17.1 19.2-4 19.7-8.5 36.3-13.3 49.2M3916.4 229.9c-.5 3.2-2.8 10.9-13.8 12h-44.8c-19.3-2-33.9-24.6-23.8-30.9 1.5-.9 4-1.2 5.7-1.4h57c18.4 1.8 20.5 15.3 19.7 20.3M3915.6 284.1c2.2 1.7 2.5 2 3.9 2.8 0 0-3.8.2-11.8-2.8-10.9-4.5-21.3-13.2-31-25.6-3.5-5.2-5.5-11.6 4.3-12.6 8.4.8 14.4 5 18.3 12.6 5.1 12.5 10.6 21.2 16.3 25.6"/><path class="st5" d="M3946 279.3c-.2.2-5.7 3.9-10.8 4.3H3920.8c-6.5-.6-13.1-8.3-8.8-12.2 1.3-1.2 2.6-1.3 4.7-1.5H3946.9c7.5.8 3.2 6.1.8 8-.5.5-1.2 1-1.7 1.4M4083.8-306.4c15.5 18.1 3.4 18.5 2.8 18.5-2 0-12.5-.7-27.7-18.5-14.9-18.8-31.5-34.6-49.4-46.7-8.5-5.9-10.5-7.7-11.5-9.5 0-.2.1-.4.1-.5.3-.1.6-.1.9-.2 2.2.2 10.4 1.7 26.2 10.2 21.2 12.1 40.9 27.9 58.6 46.7"/><path class="st5" d="M4026.6-335.4c2.8 3.2 8.3 10.7-.9 11.9h-45.6c-19-1.9-24.8-20.1-19.9-25.4 1.5-1.6 3.5-1.8 5.2-2h33.6c10.9 1.1 23.4 10.6 27.6 15.5M4061.4-235.2c6.1 24.8-14.9 27.7-27.7 19.7-9.9-6.2-13-15.6-14.3-19.7-5.8-24.8-12.8-47.1-20.7-66.5-4.5-14.1 2.1-16.5 7.5-17.2 9.9 1 18.2 6.6 25.4 17.2 11.3 19.3 21.3 41.7 29.8 66.5M4140.3-255.8c3.3 5.9 7.3 16.2-2.2 17.9h-52.9c-25.4-3-35.9-34.8-26.5-41.4 1.4-1 3.8-1.3 5.5-1.6h46c14.7 2.2 27.5 20.4 30.1 25.1M4171.8-120.9c3 29.6-15.7 33.1-26.6 23.7-8.6-7.4-11-18.8-12.1-23.7-4.4-30.2-11.4-58.9-20.7-85.4-4.2-15-1.7-22.6 7.9-24.1 10.9 1.5 19.7 9.3 26.9 24.1 11.1 26.5 19.4 55.2 24.6 85.4M4113.4-170.8c.6 7.1-.8 19.4-16.5 21.4h-77.7c-30.7-3.2-36-35.7-19.6-48 4.5-3.4 9.2-3.9 13-4.3h72.3c25.1 3 28.5 30.6 28.5 30.9M4089.8-18.6c-4.3 33.3-32.5 34.3-44 20.7-6.1-7.2-6.5-14-6.9-20.7.3-9.2.4-18.5.4-27.9 0-22.9-.8-45.3-2.3-66.9.3-17.1 7.7-26.3 22.6-28 15.2 1.7 24.1 10.9 27.4 28 2.2 21.6 3.3 44 3.3 66.9.1 9.4-.1 18.7-.5 27.9M4201.4-45.9c-.9 8-4.2 21.7-16.9 23.9h-64.4c-28.1-3.7-26.9-42.3-13.1-54.7 4.5-4 7.1-4.3 12.5-5h64.2c17.3 2.9 18.6 27.5 17.7 35.8M4151.3 103.3c-11.9 26.2-31.5 30.1-36.1 17.5-2.2-6-.7-12.1.7-17.5 8.7-27 15.1-56.1 18.9-86.8 3.4-17.7 11-27.2 23.2-29 11.9 1.8 17 11.3 15.7 29-4.5 30.7-12.1 59.8-22.4 86.8M4118.4 55.3c-2 5.8-8.6 19.4-25.4 21.5h-75.9c-29.8-3.2-29-37.5-10.4-50.1 5.6-3.8 11-4.4 15.3-4.8h80c22 2.7 19.1 25.6 16.4 33.4M4045.1 182.9c-12.9 22.9-34.2 24.2-37.7 11.1-1.1-3.9-.1-7.9.6-11.1 7.1-21.8 13.2-46.3 18-73 4.3-15.6 13.5-23.9 28.2-25.5 14 1.6 19.5 10 16.9 25.5-7 26.7-15.8 51.2-26 73M4139.7 163.7c-2.8 3.5-12.7 15.2-24 16.9h-47.4c-18.3-2.4-8.2-27.1 4.1-37.3 7-5.7 11.6-6.3 16.1-6.8h54c13.3 2.3 2.2 20.9-2.8 27.2M4033.1 255.4c-15.2 8.9-24.8 11.4-27.5 10.9l-.3-.6c.8-1.9 2.6-4 10.9-10.3 17.5-13 33.8-29.6 48.3-49.2 9.6-11.9 18.4-17.9 27.8-19.2 7.9 1.3 7.2 7.7-1.9 19.2-17.3 19.7-36.5 36.3-57.3 49.2M4038.8 229.9c-2.6 2.5-12.1 10.8-22.8 12h-41.2c-14.6-1.6-11-18.9-.4-27.1 5.6-4.4 10.1-4.8 14-5.2h52.4c12.8 1.7 4.2 14.4-2 20.3M3948.2 284.1c-6.3 1.7-11.6 2.6-16 2.9 2.9-1.1 5.8-1.8 8.7-2.9 10.7-4.5 20.9-13.2 30.4-25.6 4.2-4.9 10.9-11.6 21.3-12.6 4.9.6 8.8 3.3-.5 12.6-13.7 12.5-28.5 21.2-43.9 25.6"/><path class="st5" d="M3985.8 279.3c-7.4 2-17.2 3.9-21.4 4.3h-9.9c-.1 0-.3-.1-.4-.1.1-.1 23.9-12.6 33.3-13.6h20.7c.2.1.5.1.7.2-.9 2-11 6-23 9.2M4142-299.9c9.1 7.8 11.3 10.7 12.1 11.6-1.4 0-2.3-.7-23.5-18.1-22.9-18.8-48.4-34.6-75.7-46.7-8.2-3.6-16.9-5.9-24.8-10.2 1.6.4 8.2 2.5 17.6 6.2 34.6 13.9 66.5 33.3 94.3 57.2"/><path class="st5" d="M4087.7-335.4c4.9 3 13.2 8.5 14.8 11.6-.2.1-.4.2-.5.3h-22c-12.4-1.8-42-23.3-41.8-27.2.3-.1.6-.2.9-.2h16.2c4.9.9 19.9 7.8 32.4 15.5M4181.6-235.2c12.8 21.6 6.6 25 1.6 23.3-2.8-1-10.6-5.2-22-23.3-14.6-24.8-32-47.1-51.7-66.5-10.9-11.1-12.8-14.8-12.3-16.8.3-.1.7-.2 1.1-.3 4.2.8 12.3 4.3 27.2 17.2 21.3 19.2 40.2 41.6 56.1 66.4M4198.2-237.9h-9c-9.3-2.8-35.2-35.6-35.3-42.6.2-.1.5-.3.7-.4h7.8c13.1 13.3 25 27.7 35.8 43M4252.3-110.6c3 16.3 1.8 17.9 1.4 18.4-2.2-1.8-5.1-10.9-9.3-28.7-6.8-30.2-17.5-58.9-31.7-85.4-10.3-19.5-11.2-23.1-10.8-24.1 1.9 1.2 5.5 6.3 10.8 15.2 18.7 31.9 32.3 67.2 39.6 104.6"/><path class="st5" d="M4226.4-170.8c2.4 7.1 5.7 19.4.4 21.4h-37.4c-12.7-2.2-19.6-17-21.4-21.4-8.2-20.3-3.3-28.8.4-30.4.7-.3 1.8-.4 2.6-.5h34.8c9.2 2.6 18.6 25.1 20.6 30.9M4235-18.6c-3.5 29.2-14.4 31.9-19.2 26.9-6.1-6.4-5.6-21.3-5.5-26.9.7-9.2 1-18.5 1-27.9 0-22.9-2-45.3-5.8-66.9-2.3-17.4-.1-26.3 6.8-28 7.7 1.7 13.4 10.9 17.4 28 4.1 21.6 6.3 44 6.3 66.9.1 9.4-.3 18.7-1 27.9M4258.4-46.5c0 8.2-.3 16.4-.9 24.5h-11c-11.5-4.7-7.7-55.1-2.4-59.1.4-.3 1-.4 1.5-.6h10.9c1.3 11.6 1.9 23.3 1.9 35.2M4218.3 112.4c-5 9.1-8.5 14.3-10.3 15.5 0-2.2 0-4.2 9.9-24.6 13.3-27 23.2-56.1 28.9-86.8 3.5-18 6.2-27.2 8.3-29 .4.5 1.7 2.1-.8 18.6-6 38-18.4 73.8-36 106.3"/><path class="st5" d="M4234.3 55.3c-2.1 5.8-7.6 19.4-14.5 21.5h-36.6c-18.1-3.5-6.5-43.7 7.3-52.7 1.7-1.1 4.4-1.9 6.4-2.2h38.5c7.9 2.8 1.7 25.6-1.1 33.4M4151 182.9c-12.1 13-22.9 20.5-27.6 19.1-1.5-2.9 1.3-8.4 9.6-19.1 17.7-21.8 32.8-46.3 45-73 7.9-15.8 15.1-23.9 22.8-25.5 6.3 1.6 6 10-1 25.5-13.1 26.7-29.6 51.2-48.8 73"/><path class="st5" d="M4169.4 180.5h-8.1c-.2-.1-.5-.3-.7-.4-.3-7.1 24.6-40.8 34.1-43.7h9.2c-10.3 15.7-21.8 30.5-34.5 44.1M4058.1 259.7c-7.8 3.4-15.1 6.2-17.4 6.8 8-3.9 16.2-7.2 24.2-11.1 26.9-13 51.8-29.6 74-49.2 15.7-13.9 20.7-18.1 23-19.2-.8 1.4-1.8 3.3-11.6 12.4-27 25-58.1 45.4-92.2 60.3"/><path class="st5" d="M4107.1 229.9c-.6.4-15.7 10.6-22.3 12h-19.9l-1.2-.3c-2.4-5.3 25.9-29.9 39.4-32h25.3c.2.1.5.3.7.4-1 4.7-14.8 15.1-22 19.9M3969 284.1c-5.2.8-16.2 2.3-28.1 2.9 11.7-.9 17.1-1.7 24.5-2.9 26.7-4.5 52.2-13.2 76-25.6 15.9-8.2 23.3-11.8 28.2-12.6.2.1.5.2.7.3-1.1 3.5-14 9.9-18.8 12.3-25.8 12.5-53.5 21.2-82.5 25.6"/><path class="st5" d="M3975.5 283.6h-1.7c.1 0 .2-.1.3-.1 10.1-2.6 20.5-4.2 30.6-7 7.8-2.1 15.4-5.1 23.3-6.6h3.5c-17.9 6.2-36.7 10.8-56 13.7"/><circle class="st3" cx="2260.5" cy="30.5" r="334"/><path class="st6" d="M1978.3 143.3c10.3 29.7.8 25.2.7 25.2-1.6-.8-7.5-5-16.1-25.2-11.1-28.1-18.5-58.1-21.8-89.4-1.3-18.1.4-27.7 5.4-29.6 5.2 1.8 8.8 11.5 11.1 29.6 3.1 31.3 10.2 61.3 20.7 89.4"/><path class="st6" d="M2053.2 118.9c.8 12.7-3.6 19.9-13.1 21.4h-48.6c-21-4.3-26.4-49.5-16.8-54.3.7-.3 1.7-.4 2.5-.6h51.1c18.8 2.8 24.4 25.7 24.9 33.5M2083.7 247.1c14.3 22.1 2 19.5.6 19.1-2.5-.6-11.7-3.9-24.9-19.1-17.3-21.7-32.2-46.2-44.1-72.8-6-15.5-4.6-23.8 4.3-25.4 9.9 1.6 18.2 9.9 25.2 25.4 10.5 26.5 23.6 51 38.9 72.8M2026.6 207.4c5.3 10.7 5.9 16.8 1.6 17.9h-21c-6.5-2.8-29.9-36.3-31-46.1.1-.2.3-.4.5-.5h23.4c13.6 2.9 26.4 28.5 26.5 28.7M2110.1 307.3c16.8 10.6 18 11.5 19.3 12.9-3.3 0-13.9-4.9-27.6-12.9-25.4-15.1-48.6-33.6-69-54.9-4.2-4.6-14-15.2-13.7-20.2.3-.1.6-.3.9-.4 4.9 1.3 12.2 7.5 24.6 20.7 19.4 21.1 41.4 39.6 65.5 54.8"/><path class="st6" d="M2139.5 293.6c8.9 10.9 4.1 11.8 2.6 12.1h-26.7c-12.4-2-44.2-25.1-41.4-32.1.4-.1.9-.3 1.3-.4h33.8c15.2 1.9 29.8 19.6 30.4 20.4M2228.8 348.8c5.9 1.1 11 2.1 20.5 3-10.7-.6-20.7-2.2-25.5-3-26.2-4.6-51.3-13.5-74.6-26-8.5-4.8-13.5-8.1-15.1-11.6.1-.2.2-.6.3-.8.4-.1.9-.2 1.2-.3 6.5.9 15.3 5.5 27.4 12.7 20.6 12.5 42.7 21.4 65.8 26"/><path class="st6" d="M2178.3 336.9c5.4 2 11 3.6 16.2 6-3.1.1-5.2.1-6.4.1-11.1-2-41-11.4-53.1-17.9 1.8-.2 5.4-.2 10.5-.2 2 .4 2 .4 32.8 12M2266.2 352.5c-14 0-27.8-.9-41.4-2.7-21.3-3-26.5-4.9-26.5-4.9 9.6 1.3 19 3.5 28.6 4.9 12.9 1.8 26 2.7 39.3 2.7"/><path class="st6" d="M2266.2 352.5c-3.4 0-6.4-.1-8.8-.1h1.6c3.3.1 4.4.1 7.2.1M2115 143.3c3.1 27.3-16.5 29.3-28.3 21.4-9.7-6.6-13.1-16.6-14.7-21.4-7.1-28.1-11.9-58.1-13.9-89.4.3-18.1 7.2-27.7 21.3-29.6 14.3 1.8 22.4 11.5 24.7 29.6 1.7 31.3 5.4 61.3 10.9 89.4M2254.4 118.9c-1.4 7.2-6.8 19.5-26.7 21.4h-82.9c-29.1-3.1-35.2-37.4-20-50 4.6-3.8 9.6-4.4 13.7-4.8h87.2c28.4 2.8 30.3 25.6 28.7 33.4M2227.7 247.1c1.1 22.7-21.4 24-34 11.1-3.9-3.9-5.4-7.7-6.8-11.1-6.6-21.7-12.3-46.2-16.9-72.8-1.1-15.5 5.9-23.8 21.4-25.4 16 1.6 25.2 9.9 28.1 25.4 2.2 26.5 5 51 8.2 72.8M2165.9 207.4c.4 7.3-1.9 16.4-15.1 17.9h-58.4c-24.1-3.1-37.5-36.5-26.7-44.7 1.6-1.2 4.3-1.7 6.3-1.9h65.3c26.4 3 28.6 28.5 28.6 28.7M2184.2 307.3c10.7 14 2.4 13.4-.4 12.9-2.3-.4-10.9-2.6-22.9-12.9-16.2-15.1-31.1-33.6-44.2-54.9-6.5-12.4-4.6-19.4 5.6-20.7 11.4 1.3 20.4 8.1 27.5 20.7 10.2 21.2 21.8 39.7 34.4 54.9"/><path class="st6" d="M2259.2 293.6c-.5 3.3-3 11-14.1 12.1h-45.5c-19.5-2-33.9-24.8-23.5-31.1 1.5-.9 4-1.2 5.8-1.4h57.6c18.6 1.7 20.5 15.3 19.7 20.4M2258.3 348.8c1 1 2 1.9 3 2.9-.1.1-4 .2-11.4-2.9-10-4.6-19.6-13.5-28.6-26-4.6-7.6-2.8-11.8 5.2-12.7 8.6.8 14.4 5 17.8 12.7 4.5 12.5 9.1 21.4 14 26M2229.4 336.9c3.6 3.8 3.5 5.1 3.5 5.6-.4.3-1 .5-1.5.5h-17.6c-8.5-.9-35.3-10.4-37.6-17.3.4-.5 1.2-.8 1.8-.9h29.6c10.6 1.2 19.4 9.6 21.8 12.1"/><path class="st6" d="M2266.2 352.5c-9 0-17.8-.9-26.5-2.7-11.7-2.6-13.7-4.1-13.8-4.8.2 0 .5-.1.7-.1 1.5.1 1.5.1 19 4.9 6.7 1.8 13.6 2.7 20.6 2.7"/><path class="st6" d="M2266.2 352.5c-1.8 0-3.5-.1-3.9-.1h2.7c.4 0 .8.1 1.2.1M2327.1 143.3c-5.4 30-37.6 31.8-49.5 14.5-3.6-5.2-4.1-10.3-4.5-14.5.3-28.1.4-58.1.5-89.4 1.9-18.1 11.5-27.7 29.5-29.6 17.7 1.8 27 11.5 28.4 29.6-.7 31.3-2.2 61.3-4.4 89.4M2219.1-45.7c-5.4 30-37.6 31.8-49.5 14.5-3.6-5.2-4.1-10.3-4.5-14.5.3-28.1.4-58.1.5-89.4 1.9-18.1 11.5-27.7 29.5-29.6 17.7 1.8 27 11.5 28.4 29.6-.7 31.3-2.2 61.3-4.4 89.4M2053.1-27.7c-5.4 30-37.6 31.8-49.5 14.5-3.6-5.2-4.1-10.3-4.5-14.5.3-28.1.4-58.1.5-89.4 1.9-18.1 11.5-27.7 29.5-29.6 17.7 1.8 27 11.5 28.4 29.6-.7 31.3-2.2 61.3-4.4 89.4M2461.8 118.9c-2 5.8-8.5 19.4-25.3 21.4h-75.8c-29.7-3.2-29-37.4-10.4-50 5.6-3.8 11-4.4 15.3-4.8h79.8c21.9 2.8 19.1 25.6 16.4 33.4M2392.7 247.1c-13.4 23-34.4 24.2-37.6 11.1-.9-3.9.1-7.9.9-11.1 7.5-21.7 14-46.2 19.2-72.8 4.4-15.5 13.6-23.8 28.2-25.4 13.8 1.6 19.2 9.9 16.3 25.4-7.3 26.5-16.4 51-27 72.8M2357.2 207.4c-2 4.8-8.6 16.3-25.4 17.9h-73.2c-25.9-2.4-31-27.4-19-39.4 6-6 12.4-6.6 18.1-7.2h81.9c27.6 3 17.7 28.5 17.6 28.7M2299.2 307.3c-7 15.8-23.9 16.9-28.4 5.3-.6-1.5-.8-3.7-.9-5.3.6-15.1 1.1-33.6 1.6-54.9 1.6-12.6 9.2-19.4 23.1-20.7 13.5 1.3 19.5 8.1 18.5 20.7-4.1 21.2-8.8 39.7-13.9 54.9M2382.6 293.6c-2.6 2.5-12.1 10.9-22.9 12.1h-41.6c-14.7-1.6-11.1-19-.3-27.3 5.7-4.4 10.2-4.8 14.1-5.2h52.7c13.8 1.8 2.9 15.6-2 20.4M2292.1 348.8c-8.2 2.2-13.6 2.9-16.7 3.1 3-1.3 6.2-1.9 9.2-3.1 11.4-4.6 22.3-13.5 32.4-26 4.4-4.9 11.4-11.6 21.8-12.7 4.9.6 8.6 3.3-1.1 12.7-14.2 12.5-29.5 21.4-45.6 26"/><path class="st6" d="M2299.6 336.9c-.7.6-6.9 5.5-13.6 6.2H2263.9c-9.1-.9-14.2-11.5-7.8-16.2 2-1.5 3.6-1.6 6.3-1.9h37.1c8.9.9 5.3 7.7.1 11.9M2266.2 352.5c.4-.7.8-1.8.9-2.7.8-2.9 3.1-4.5 6.9-4.9 5.5.6 1.6 4.1 1.5 4.1-1.6 1.4-4.4 2.4-6.4 3.1-.8.4-2 .3-2.9.4"/><path class="st6" d="M2266.2 352.5c1 0 2-.1 3-.1h2.4c-.9.1-3.1.1-5.4.1M2505.6 143.3c-10.5 27.5-30.3 31.5-35.8 18.3-2.6-6.3-1.3-12.6-.2-18.3 7.4-28.1 12.4-58.1 14.6-89.4 2.4-18.1 9.4-27.8 21.4-29.6 11.8 1.9 17.4 11.5 17.2 29.6-2.5 31.3-8.4 61.3-17.2 89.4M2576.9 118.9c-2 5.8-7.5 19.4-14.3 21.4h-36.2c-18-3.5-6.5-43.6 7.2-52.6 1.7-1.1 4.4-1.9 6.4-2.2h38.1c7.7 2.8 1.6 25.6-1.2 33.4M2495.7 247.1c-12.1 13-22.7 20.5-27.1 19.1-1.3-2.9 1.6-8.4 10-19.1 17.8-21.7 33.1-46.2 45.3-72.8 7.9-15.8 15-23.8 22.3-25.4 6 1.6 5.4 10-1.6 25.4-13.2 26.5-29.7 51-48.9 72.8M2500.7 207.4c-2.6 3.8-12 16.2-23.3 17.9h-48.7c-17.9-2.4-10.9-27.4 2.9-39.4 6.9-6 11.6-6.6 16.2-7.2h54.4c13.3 2.6 3.1 22.1-1.5 28.7M2396 307.3c-16 11.3-30.3 15.9-29 11 .8-3 7.1-8.8 9.4-11 17-15.1 32.6-33.6 46.3-54.9 9.1-12.8 17.9-19.4 27.8-20.7 8.4 1.3 8.3 8.3-.1 20.7-16 21.2-34.4 39.7-54.4 54.9"/><path class="st6" d="M2451.1 293.6c-.6.4-15.6 10.6-22.1 12.1h-19.9l-1.2-.3c-2.4-5.3 25.7-30.1 39.2-32.2h25.2c.2.1.5.3.7.4-1.1 4.6-14.8 15.1-21.9 20M2313.2 348.8c-5.3.8-16.4 2.4-28.2 3.1 12-1 17.3-1.9 24.7-3.1 26.9-4.6 52.7-13.5 76.7-26 16-8.3 23.5-11.9 28.1-12.7.2.1.5.2.7.3-1.4 3.5-14.3 10-19.1 12.4-26 12.5-53.8 21.4-82.9 26"/><path class="st6" d="M2352.3 336.9c-7.3 2.6-17.6 5.6-22.4 6.2h-14.7c-.2 0-.5-.1-.7-.1v-.4c1.5-1.8 22.3-16.3 34.2-17.6h24.7c.3.1.6.2.9.2-.3 2.6-11.3 7.9-22 11.7M2266.2 352.5c9.4 0 18.7-.9 27.8-2.7 7.7-1.6 15.2-4.1 23.1-4.9.1 0 .3.1.4.1-1.2.9-5.4 2.4-18.6 4.8-10.7 1.8-21.6 2.7-32.7 2.7"/><path class="st6" d="M2266.2 352.5c3.6 0 5.3-.1 8.4-.1h1.2c-2 0-4.9.1-9.6.1"/><path class="st3" d="M1235.5-535.5c-184.5 0-334 149.5-334 334s149.5 334 334 334 334-149.5 334-334-149.5-334-334-334zm209.1 446.8c7.4-28.1 12.4-58.1 14.6-89.4 2.5-18.1 9.5-27.8 21.4-29.6 11.8 1.9 17.4 11.5 17.2 29.6-2.5 31.3-8.4 61.3-17.2 89.4-10.5 27.5-30.3 31.5-35.8 18.3-2.5-6.3-1.3-12.7-.2-18.3zM1058.7 15.1c14.3 22.1 2 19.5.6 19.1-2.5-.6-11.7-3.9-24.9-19.1-17.3-21.7-32.2-46.2-44.1-72.8-6-15.5-4.6-23.8 4.3-25.4 9.9 1.6 18.2 9.9 25.2 25.4 10.5 26.5 23.6 51 38.9 72.8zm-18.1-66.4c1.6-1.2 4.3-1.7 6.3-1.9h65.3c26.5 2.9 28.7 28.4 28.7 28.6.4 7.4-1.9 16.4-15.1 17.9h-58.4c-24.1-3-37.5-36.5-26.8-44.6zm8.4 92.8c.4-.1.9-.2 1.3-.4h33.8c15.2 2 29.8 19.6 30.4 20.4 8.9 10.9 4.2 11.8 2.6 12.1h-26.7c-12.4-2-44.2-25-41.4-32.1zm42.8-21.2c-6.5-12.4-4.6-19.4 5.6-20.7 11.4 1.3 20.4 8.1 27.5 20.7 10.2 21.3 21.7 39.8 34.4 54.9 10.7 14 2.4 13.4-.4 12.9-2.3-.4-10.9-2.6-22.9-12.9-16.3-15.1-31.1-33.6-44.2-54.9zm76.9 5.9c-3.9-4-5.4-7.8-6.8-11.1-6.6-21.7-12.3-46.2-16.9-72.8-1.1-15.5 5.9-23.8 21.4-25.4 16 1.6 25.2 9.9 28.1 25.4 2.2 26.6 5 51.1 8.2 72.8 1.1 22.6-21.4 24-34 11.1zm45.8 15c18.6 1.8 20.5 15.3 19.7 20.4-.5 3.3-3 11-14.1 12.1h-45.5c-19.5-2-33.9-24.8-23.5-31.1 1.5-.9 4-1.2 5.8-1.4h57.6zM1153 93h29.7c10.5 1.1 19.3 9.4 21.7 12 3.6 3.8 3.5 5.1 3.5 5.6-.3.3-1 .5-1.4.5h-17.6c-8.5-.9-35.3-10.4-37.6-17.2.3-.5 1.1-.8 1.7-.9zm43.4-2.1c-4.6-7.6-2.8-11.8 5.2-12.7 8.6.8 14.4 5 17.8 12.7 4.3 12.5 9 21.3 13.9 26 1 1 2 1.9 3 2.9-.1.1-4 .2-11.4-2.9-10-4.7-19.6-13.6-28.5-26zm34.7 4c2-1.5 3.6-1.6 6.3-1.9h37.1c8.9 1 5.3 7.7.1 12-.7.6-6.9 5.5-13.6 6.2h-22.1c-9.1-1-14.2-11.6-7.8-16.3zm43.1-19.6c-7 15.8-23.9 16.9-28.4 5.3-.6-1.5-.8-3.7-.9-5.3.6-15.1 1.1-33.6 1.6-54.9 1.6-12.6 9.2-19.3 23.1-20.7 13.5 1.3 19.5 8.1 18.5 20.7-4.1 21.2-8.8 39.7-13.9 54.9zm18.5-28.9c5.7-4.4 10.2-4.8 14.1-5.2h52.7c13.9 1.8 3 15.7-1.9 20.4-2.7 2.5-12.1 10.9-22.9 12.1H1293c-14.7-1.7-11.1-19.1-.3-27.3zm38.3-31.3c7.5-21.7 14-46.2 19.2-72.8 4.4-15.5 13.6-23.8 28.2-25.4 13.8 1.6 19.2 9.9 16.3 25.4-7.3 26.6-16.4 51.1-27 72.8-13.4 23-34.4 24.2-37.6 11.1-.9-3.9.1-7.9.9-11.1zm17.4 77.9c.3.1.6.2.9.2-.2 2.6-11.2 7.9-22 11.7-7.3 2.6-17.6 5.6-22.4 6.2h-14.7c-.2 0-.5-.1-.7-.1v-.4c1.5-1.8 22.3-16.3 34.2-17.6h24.7zm-6.4-6.7c.8-3 7.1-8.8 9.4-11 17-15.1 32.6-33.6 46.3-54.9 9.1-12.8 17.9-19.4 27.8-20.7 8.4 1.3 8.3 8.3-.1 20.7-16.1 21.3-34.4 39.8-54.5 54.9-15.9 11.3-30.2 15.9-28.9 11zm61.7-92.9c-17.9-2.4-10.9-27.4 2.9-39.4 6.9-6 11.6-6.6 16.2-7.2h54.4c13.2 2.5 3 22-1.6 28.6-2.6 3.8-12 16.2-23.3 17.9h-48.6zm-78.4-135.1c5.6-3.8 11-4.4 15.3-4.8h79.8c22 2.8 19.2 25.6 16.5 33.4-2 5.8-8.5 19.4-25.3 21.4h-75.8c-29.9-3.2-29.1-37.4-10.5-50zm-76.7-36.4c1.9-18 11.5-27.7 29.5-29.6 17.7 1.8 27 11.5 28.4 29.6-.7 31.3-2.2 61.3-4.4 89.4-5.4 30-37.6 31.8-49.5 14.5-3.6-5.2-4.1-10.3-4.5-14.5.2-28.1.4-58.1.5-89.4zm65.9 124.9c27.7 2.9 17.7 28.4 17.6 28.6-2 4.8-8.6 16.3-25.4 17.9h-73.2c-25.9-2.4-31-27.4-19-39.4 6-6 12.4-6.6 18.1-7.2h81.9zm-173.9-313.9c1.9-18 11.5-27.7 29.5-29.6 17.7 1.8 27 11.5 28.4 29.6-.7 31.3-2.2 61.3-4.4 89.4-5.4 30-37.6 31.8-49.5 14.5-3.6-5.2-4.1-10.3-4.5-14.5.2-28.1.4-58.1.5-89.4zm-40.7 225.4c4.6-3.8 9.6-4.4 13.7-4.8h87.2c28.3 2.8 30.2 25.6 28.7 33.4-1.4 7.2-6.8 19.5-26.7 21.4h-82.9c-29.1-3.2-35.3-37.4-20-50zm-45.5-66c14.3 1.8 22.4 11.5 24.7 29.6 1.6 31.3 5.3 61.3 10.8 89.4 3.1 27.3-16.5 29.3-28.3 21.4-9.7-6.6-13.1-16.6-14.7-21.4-7.1-28.1-11.9-58.1-13.9-89.4.4-18.1 7.3-27.8 21.4-29.6zm-79.8-141.4c1.9-18 11.5-27.7 29.5-29.6 17.7 1.8 27 11.5 28.4 29.6-.7 31.3-2.2 61.3-4.4 89.4-5.4 30-37.6 31.8-49.5 14.5-3.6-5.2-4.1-10.3-4.5-14.5.2-28.1.4-58.1.5-89.4zM949.7-146c.7-.3 1.7-.4 2.5-.6h51.1c18.8 2.8 24.4 25.6 24.9 33.4.8 12.7-3.7 19.9-13.2 21.4h-48.6c-21-4.2-26.3-49.4-16.7-54.2zm-33.5-32.1c-1.3-18 .4-27.7 5.4-29.6 5.2 1.8 8.8 11.5 11.1 29.6 3.1 31.3 10.1 61.3 20.7 89.4 10.3 29.7.8 25.2.7 25.2-1.6-.8-7.5-5-16.1-25.2-11.1-28.1-18.6-58.1-21.8-89.4zm35.1 125.4.5-.5h23.4c13.5 2.8 26.3 28.4 26.4 28.6 5.3 10.7 5.9 16.8 1.6 17.9h-21c-6.4-2.7-29.9-36.2-30.9-46zm125.5 128c-25.4-15.1-48.6-33.6-69-54.9-4.2-4.6-14-15.2-13.7-20.2.3-.1.6-.3.9-.4 4.9 1.3 12.2 7.5 24.6 20.7 19.4 21.3 41.4 39.8 65.5 54.9 16.8 10.6 18 11.5 19.3 12.9-3.3-.2-13.8-5.1-27.6-13zm32.6 3.2 1.2-.3c6.5.9 15.3 5.5 27.4 12.7 20.6 12.5 42.7 21.3 65.9 26 5.9 1.1 11 2.1 20.5 3-10.7-.6-20.7-2.2-25.5-3-26.2-4.6-51.3-13.5-74.6-26-8.5-4.8-13.5-8.1-15.1-11.6 0-.3.1-.6.2-.8zm53.7 32.6c-11.2-2-41-11.4-53.1-17.9 1.8-.2 5.4-.2 10.5-.2 2 .3 2 .3 32.8 12 5.4 2 11 3.7 16.2 6-3.1.1-5.2.1-6.4.1zm36.7 6.8c-21.3-3-26.5-4.9-26.5-4.9 9.6 1.3 19 3.5 28.6 4.9 10 1.4 20.2 2.2 30.5 2.5-11-.3-21.9-1.2-32.6-2.5zm39.7 2.6H1236.8c-7.4-.3-14.8-1.1-22-2.6-11.8-2.6-13.7-4.1-13.8-4.8.2 0 .5-.1.7-.1 1.4.1 1.4.1 19 4.9 6.3 1.6 12.7 2.5 19.2 2.7h-.4zm1.7 0c.4-.7.8-1.8.9-2.7.8-2.9 3.1-4.5 6.9-4.9 5.5.6 1.6 4.1 1.5 4.1-1.6 1.4-4.4 2.4-6.4 3.1-.8.4-2 .3-2.9.4zm18.4-3.7c11.4-4.6 22.3-13.5 32.4-26 4.4-4.9 11.4-11.6 21.8-12.7 4.9.6 8.6 3.3-1.1 12.7-14.3 12.5-29.6 21.3-45.7 26-8.2 2.2-13.6 2.9-16.7 3.1 3.1-1.3 6.3-1.9 9.3-3.1zM1371 90.9c-25.9 12.5-53.7 21.3-82.8 26-5.3.8-16.4 2.5-28.2 3.1 12-1 17.3-1.9 24.7-3.1 26.9-4.6 52.7-13.5 76.7-26 16-8.3 23.5-11.9 28.1-12.7.2.1.5.2.7.3-1.4 3.5-14.3 9.9-19.2 12.4zm55.1-29.3c-.6.4-15.6 10.6-22.1 12.1h-19.9l-1.2-.3c-2.4-5.3 25.7-30.1 39.2-32.2h25.2c.2.1.5.2.7.4-1.1 4.6-14.8 15.1-21.9 20zm93.6-119.4c-13.2 26.6-29.8 51.1-49 72.8-12.1 13-22.7 20.5-27.1 19.1-1.3-2.9 1.6-8.4 10-19.1 17.8-21.7 33.1-46.2 45.3-72.8 7.9-15.8 15-23.8 22.3-25.4 6 1.6 5.5 9.9-1.5 25.4zm18-33.9h-36.2c-18-3.5-6.5-43.6 7.2-52.6 1.7-1.1 4.4-1.9 6.4-2.2h38.1c7.7 2.8 1.6 25.6-1.2 33.4-2.1 5.7-7.5 19.4-14.3 21.4z"/></svg>
