<svg width="90" height="90" fill="none" xmlns="http://www.w3.org/2000/svg"><path d="M90 45c0 24.8514-20.1486 45-45 45S0 69.8514 0 45 20.1486 0 45 0c24.8566 0 45 20.1486 45 45Z" fill="#2081E2"/><path d="m22.2011 46.512.1942-.3051 11.7063-18.313c.171-.2682.5733-.2404.7027.0508 1.9557 4.383 3.6432 9.8339 2.8526 13.2274-.3375 1.3962-1.2621 3.2872-2.3024 5.0348-.1341.2543-.282.504-.4392.7444-.074.1109-.1988.1757-.3329.1757H22.5432c-.3236 0-.5131-.3514-.3421-.615Z" fill="#fff"/><path d="M74.38 49.9149v2.8988c0 .1664-.1017.3144-.2496.3791-.9062.3884-4.0085 1.8124-5.2984 3.6062-3.2918 4.5817-5.8069 11.133-11.4289 11.133H33.949c-8.3128 0-15.049-6.7593-15.049-15.0998v-.2682c0-.2219.1803-.4022.4023-.4022H32.377c.2589 0 .4485.2404.4254.4947-.0925.8507.0647 1.7199.4669 2.5105.7768 1.5765 2.3857 2.5613 4.1241 2.5613h6.4726V52.675h-6.3987c-.3282 0-.5224-.3791-.3328-.6473.0693-.1063.1479-.2173.2311-.3421.6057-.8599 1.4702-2.1961 2.3302-3.7172.5871-1.0263 1.1558-2.1221 1.6135-3.2224.0925-.1988.1665-.4022.2404-.6011.1249-.3513.2543-.6796.3468-1.0078.0924-.2774.1664-.5687.2404-.8415.2173-.9339.3098-1.9233.3098-2.9497 0-.4022-.0185-.8229-.0555-1.2252-.0185-.4392-.074-.8784-.1295-1.3176-.037-.3884-.1063-.7721-.1803-1.1743-.0925-.5872-.2219-1.1697-.3699-1.7569l-.0508-.2219c-.111-.4022-.2034-.786-.3329-1.1882-.3652-1.2622-.786-2.492-1.2298-3.6432-.1618-.4577-.3468-.8969-.5317-1.3361-.2728-.6612-.5502-1.2622-.8044-1.8309-.1295-.2589-.2405-.4947-.3514-.7351-.1248-.2728-.2543-.5455-.3837-.8045-.0925-.1988-.1989-.3837-.2728-.5686l-.7906-1.461c-.111-.1988.074-.4346.2912-.3745l4.947 1.3408h.0139c.0092 0 .0139.0046.0185.0046l.6519.1803.7166.2034.2635.074v-2.9404c0-1.4194 1.1374-2.5706 2.5429-2.5706.7027 0 1.3407.2866 1.7984.7536s.7444 1.105.7444 1.817v4.3644l.527.1479c.0417.0139.0833.0324.1203.0601.1294.0971.3143.2405.5501.4161.185.148.3838.3283.6242.5132.4762.3838 1.0448.8785 1.669 1.4471.1664.1434.3283.2913.4762.4393.8045.7489 1.706 1.6274 2.566 2.5983.2404.2727.4762.5501.7166.8414.2404.2959.4947.5872.7166.8785.2913.3883.6056.7905.8784 1.2113.1295.1988.2774.4022.4023.601.3513.5317.6611 1.0819.957 1.632.1248.2543.2543.5317.3652.8045.3283.7351.5872 1.4841.7536 2.2331.0509.1618.0879.3375.1064.4947v.0369c.0554.222.0739.4578.0924.6982.074.7674.037 1.5349-.1294 2.307-.0694.3283-.1618.638-.2728.9663-.111.3144-.2219.6426-.3652.9524-.2774.6426-.6057 1.2853-.9941 1.8863-.1248.2219-.2727.4577-.4207.6796-.1618.2358-.3282.4578-.4762.6751-.2034.2774-.4207.5686-.6426.8275-.1988.2728-.4023.5456-.6242.786-.3097.3652-.6056.712-.9154 1.0449-.1849.2173-.3837.4392-.5872.638-.1988.2219-.4022.4207-.5871.6056-.3098.3098-.5687.5502-.786.749l-.5086.467c-.0739.0647-.171.1017-.2727.1017h-3.9391v5.0533h4.9562c1.1096 0 2.1637-.393 3.0144-1.1142.2913-.2543 1.5627-1.3547 3.0653-3.0144.0508-.0555.1156-.0971.1895-.1156l13.6897-3.9576c.2543-.074.5132.1202.5132.3884Z" fill="#fff"/></svg>