<svg xmlns="http://www.w3.org/2000/svg" viewBox="0 0 1000 1000" xml:space="preserve"><path d="M671.64 10.35c-2.11.38-8.63 1.73-14.38 2.88-5.94 1.15-111.81 46.22-239.53 101.64L188.74 214.4h-44.3c-49.67 0-61.18 1.73-80.36 11.89-23.59 12.66-41.81 34.52-49.86 60.03L10 299.75v607.94l4.41 12.47c11.51 31.64 33.95 54.08 65.78 65.59l12.27 4.41h385.48c368.79 0 386.05-.19 396.99-3.45 35.29-10.93 64.06-40.47 71.73-74.22 1.15-5.18 2.11-41.04 2.11-89.56V742l8.82-4.41c11.7-5.75 24.55-20.33 28.96-32.79 3.07-9.21 3.45-18.03 3.45-103.95v-93.98l-4.99-10.55c-5.95-12.27-18.03-24.93-28.77-29.73l-7.48-3.45V382.4c0-89.18-.38-93.21-11.89-114.88-12.47-23.21-44.11-46.8-67.31-50.25l-8.25-1.34-36.06-72.11c-19.94-39.7-39.89-77.67-44.49-84.19-15.73-22.05-40.08-38.93-65.4-45.45-12.26-3.25-37.2-5.36-43.72-3.83zm30.69 42c15.73 4.22 28.19 11.51 39.13 23.01 8.25 8.63 18.79 25.32 17.07 26.85-.38.19-55.04 25.7-121.78 56.38L515.54 214.4H403.92c-64.25 0-111.04-.77-109.89-1.73 2.88-2.68 364.77-159.37 372.44-161.1 11.12-2.67 23.58-2.29 35.86.78zm93.59 122.74c10.16 20.52 18.6 37.78 18.6 38.36 0 .58-45.07.96-100.11.77-75.56 0-99.53-.58-97.04-2.3 2.88-1.92 156.49-73.64 158.79-74.03.58-.2 9.4 16.68 19.76 37.2zm73.07 82.85c11.12 4.03 26.27 17.07 32.6 28.19 7.86 13.62 8.82 23.97 8.82 100.88v72.88h-78.44c-85.15 0-95.51.96-119.67 10.55-58.11 23.4-95.89 86.69-87.83 147.48 4.99 36.44 16.11 59.45 41.42 84.57 19.56 19.75 38.17 30.69 63.67 37.78 14 3.84 20.14 4.22 98 4.99l83.04.77-.57 77.86-.58 78.05-4.99 10.74c-6.91 14.58-17.26 25.51-30.11 31.84l-10.93 5.37h-382.6c-373.21 0-382.79 0-392.19-3.64-12.47-4.99-28.19-19.75-33.75-32.41l-4.6-9.98V299.75l4.79-9.59c6.33-13.04 20.71-26.66 32.99-31.45 10.16-3.84 13.62-3.84 390.85-4.03 358.24 0 381.25.19 390.08 3.26zm75.17 248.74 6.52 6.52v87.45c0 96.27 0 95.89-11.7 101.83-4.99 2.69-17.26 3.07-100.11 2.5-92.05-.58-94.55-.77-105.67-4.99-41.04-15.34-66.74-49.1-69.62-91.48-3.06-46.21 26.47-89.36 71.35-103.75 13.23-4.41 14.96-4.41 107.97-4.6h94.74l6.52 6.52z"/><path d="M743.95 545.61c-11.51 4.03-27.62 19.56-33.18 31.64-6.14 13.81-6.33 36.82-.38 49.67 5.75 12.66 16.49 23.78 28.96 29.92 14.38 7.09 36.63 7.48 50.63 1.15 13.42-6.14 25.12-18.03 31.26-31.45 4.41-10.16 5.18-13.62 4.41-26.46-1.53-34.52-26.27-57.92-60.6-57.53-7.1-.01-16.5 1.34-21.1 3.06zm29.91 37.78c11.32 5.94 15.54 16.11 11.12 26.85-3.26 8.05-9.78 12.66-17.83 12.66-13.23 0-21.67-8.24-21.67-21.48 0-8.06 4.41-14.58 12.27-18.03 7.68-3.26 9.78-3.26 16.11 0z"/></svg>